<svg xmlns="http://www.w3.org/2000/svg" viewBox="0 0 32.47 33.18">
  <defs>
    <style>
      .cls-1 {
        fill: #e29052;
        fill-rule: evenodd;
      }
    </style>
  </defs>
  <title>Asset 5</title>
  <g id="Layer_2" data-name="Layer 2">
    <g id="logo">
      <path class="cls-1" d="M8.22,19.81c-.06,0-.07-.06-.09-.11S8.22,19.73,8.22,19.81Zm-.17-1h0C6.76,17.35,8,19,8.05,18.8Zm10,.37c-.87.29-.55.74-.64-.19C17.26,18.74,17.11,18.88,18.05,19.17Zm-9.53.68c.24.16.33.11,0,0C6.85,17.85,10.5,22.38,8.52,19.85Zm-2.34-3a3.59,3.59,0,0,0-.4-.54C5.8,16.55,6,16.72,6.18,16.87Zm.26.38h0C7.2,18.16,5.89,16.56,6.44,17.25Zm.39.93c0-.07-.25-.21,0,0Zm3.24,3.6h0C9.94,21.71,9.06,20.57,10.07,21.78ZM25.79,26c-.16-.23-.3-.15,0,0C25.83,26,25.42,25.57,25.79,26ZM3.6,19.48c0,.08,0,.17,0,0C3.39,19.44,3,18.84,3.6,19.48Zm20.45,4.94h0C24.06,24.32,23.45,23.84,24.05,24.42Zm-21-5.3Zm22.81,6.2a1.16,1.16,0,0,1,.09.18C26.1,25.27,25.54,25.56,25.86,25.32Zm-1.31-.83A1.32,1.32,0,0,0,25,25,1.62,1.62,0,0,0,24.55,24.49ZM23.1,30.61c-.21.56-6-4.07-3.38-1.72-.36-.71,4.75,5.52-1.68-.33-6.28-6.57-3.23-3.17,2.62,2.72-7.12-4.94-3-2-16.61-17.08C8.5,18.68,8.63,21,19.54,31.52c-1.19-.46-8.87-4.41-11.39-10.83C7.65,20,7,19.39,6.61,18.87c-14.18-15.33,24.3,28,2.31,4.35-5.8-5.87,5.16,5.57,7.92,9C16.52,32.8,2,16.23,2.38,16c-1.69-2.86-3.53-4.28,3.85,4.43-.18.26-7.92-10.48-4.38-6,5.56,6.57,18.93,22.42.41-.12C-3,7.11,7.47,20.85,4,16.3-1.84,8,4.16,15.93.71,10.09,4.9,13.9,7,18.76,3.25,11.21c1.33-.7,2.16,5.27,10.41,12.57,7,9.5-18.36-22.28-6-8.56,1.36,1.85,1.25,1,4.47,6-12.44-18.54-8.8-8.86,8.48,7.58.26.22.75.62-.07-.17,4.48,6.49-25.77-30-13-15.13C-1.37.88,16.68,24.77,23.1,30.61Zm-15-16.43c0-.16-.09-.33-.26-.09C8,13.93,7.9,14.51,8.11,14.18Zm.09,0h0C8.5,14.33,8,13.43,8.2,14.18Zm.2.35c0-.14-.22-.17-.05.09C8.44,14.61,8.31,14.61,8.4,14.53Zm0,.13h0S8.49,15.05,8.44,14.66Zm-.39.4c.27-.07,1.37-.2.5-.07C8.78,15.18,9.24,15,8.05,15.06Zm1,.3c-.11-.18-.35,0-.07.18C9,15.43,9,15.55,9.1,15.36Zm.09.27h0C9.18,15.41,9,15.46,9.19,15.63Zm.13.09h0C9.34,15.67,9.19,15.48,9.32,15.72Zm.11.24h0C9.44,15.89,9.56,15.71,9.43,16Zm.18.28c.06,0-.22-.4-.2-.11C9.54,16.07,9.39,16.16,9.61,16.24ZM10,16h0C10,16,10.13,16.3,10,16Zm-.23.46h0C9.74,16.39,9.73,16.19,9.78,16.44Zm.24.09c-.16,0-.13-.43-.26,0C9.82,16.58,9.76,16.58,10,16.53Zm0,.2s0,0,0-.1A.32.32,0,0,0,10,16.73Zm.07.45h0S10,16.94,10.09,17.18Zm0-.48h0C10.11,16.93,10.66,17.49,10.09,16.7Zm.46.55s-.27-.39-.11,0C10.48,17.3,10.54,17.32,10.55,17.25Zm.64.2c0-.22-.33,0,0,0C11.19,17.36,11.24,17.54,11.19,17.45Zm0,.13h0C11.11,17.49,10.92,17.51,11.16,17.58Zm-.08.35c.05,0-.2-.32-.16-.06C11.06,17.77,11,18,11.08,17.93Zm.08.09h0C11.13,18.12,11.41,18.33,11.16,18Zm.27.29h0C11.34,18,11.2,18.5,11.43,18.31ZM13,20.48c-.06,0,0,0-.11,0S13,20.56,13,20.48Zm.09-.3H13S13.09,20.4,13.1,20.18Zm2,1.8c-1.08-1.1,0-.13-2.88-3.26A24.2,24.2,0,0,0,15.05,22Zm0,.38h0C15.06,22.27,14.44,21.75,15.05,22.36Zm0,.93h0C15.12,23.24,14.84,23.07,15.07,23.29Zm0-.65h0S14.86,22.34,15.07,22.64Zm.2.55s-.07-.33-.15-.09C15.21,23.06,15.15,23.16,15.27,23.19Zm.22.22h0C15.5,23.33,15.25,23.23,15.49,23.41Zm0-.35h0C15.45,22.89,14.84,22.42,15.49,23.06Zm.42.46c0-.06-.18-.26,0,0C15.87,23.52,15.94,23.53,15.91,23.52Zm.14.31h0C16.09,23.74,15.77,23.62,16.05,23.83Zm.14.35h0C16.2,24.09,15.62,23.64,16.19,24.18Zm1.86,1.42h0S18.1,25.83,18.05,25.6ZM7.19,14c0-.08-.08-.18-.11-.15S7.13,14,7.19,14Zm.13.11c-.07,0,0-.11-.11-.11S7.27,14.16,7.32,14.11Zm2.41,3.07c2.69,3.5-5.15-7-.13-.18C9.65,17,9.57,17.13,9.73,17.18Zm1,1.48h0C10.68,18.45,10,17.88,10.7,18.66Zm.13.52h0C10.86,19.09,10.58,18.86,10.83,19.18Zm.55.3h0C11.41,19.38,11,19.11,11.38,19.48Zm.44.3h0C11.91,19.75,11.47,19.44,11.82,19.78Zm-6-6.22c0-.09-.09-.08-.11-.15C5.69,13.49,5.71,13.55,5.79,13.56Zm1.48,2.17a13.83,13.83,0,0,0-1-1.63C5.12,12.71,4.45,11.7,7.27,15.73Zm1.78,1.51v-.06S8.93,17.18,9.05,17.24Zm0-.09c-.06,0,0,0-.09-.06S9.06,17.18,9,17.15Zm.07,1h0C9.19,18.14,8.88,18,9.1,18.18Zm0-1h0C9.26,17.28,9.3,17.16,9.14,17.18Zm.2,1h0C9.38,18.12,9.09,18.06,9.34,18.18ZM2,12.21c-.07-.09-.14-.3-.24-.29C1.84,12,1.89,12.24,2,12.21Zm.16.24c0-.06-.1-.2-.16-.18S2.07,12.43,2.16,12.45Zm0-.27h0S2,12,2.16,12.18Zm.13.4c-.06,0-.07,0-.09,0S2.42,12.68,2.29,12.58Zm.76,2.89c.12-.1-.37-.4,0,0C3.07,15.49,3.08,15.41,3.05,15.47Zm.27.86h0C3.18,16.3,3.35,16.54,3.32,16.33Zm.46.59h0C3.59,16.64,3.79,17.11,3.78,16.92Zm.13.2-.11-.07C3.72,17,3.88,17.27,3.91,17.12Zm.14.19h0S3.83,17,4.05,17.31Zm.07.87h0C4.06,18.1,4,18.39,4.12,18.18Zm.23-.43h0S4.18,17.46,4.35,17.75Zm-.3.33h0C4.12,17.86,3.91,18.17,4.05,18.08Zm.63.31h0C4.63,18.26,4.52,18.51,4.68,18.39Zm.33.44H5C5.11,18.76,4.61,18.67,5,18.83Zm.15.15s-.11-.36-.11,0C5.07,18.92,5.17,18.87,5.16,19Zm-.11.4v-.11C5,19.22,5.05,19.21,5.05,19.38ZM2.16,15.54h0C2.14,15.3,1.86,15.63,2.16,15.54Zm-.06-.36h0C2,15.06,2.17,15.51,2.1,15.18Zm.71,1h0S2.66,16,2.81,16.18Zm2.38,3.51h0C5.16,19.32,4.64,20,5.19,19.69Zm2.86,3.44h0C8,23.25,8.24,23.14,8.05,23.13Zm-.84-1.25h0S7.52,22.14,7.21,21.88Zm-.35-.42c-.09-.11.54.58.16.05C7,21.57,7,21.33,6.86,21.46ZM7.05,21c-.07,0,.13.44.2.25C7.15,21.23,7.13,21.26,7.05,21Zm-1-1.48v-.06S5.87,19.45,6.05,19.54Zm-.28.13-.11-.06C5.65,19.68,5.61,19.74,5.77,19.67Zm1,1c0-.21-1-1.28-.71-.77C6.15,19.66,6.18,20.31,6.76,20.66Zm7,7.4Zm-.17-.2h0C13.57,27.92,13.85,28.06,13.59,27.86ZM5,18c-.11,0,.38.42.08,0C5.08,18,5,17.9,5,18ZM3.74,16c-.07.08.19.24,0,0C3.72,16,3.7,15.93,3.74,16Zm-.11-.07h0C3.59,16,3.91,16,3.63,15.92ZM1.31,12.71c-.09,0,.05-.55-.09-.13C1.19,12.5,1.1,12.54,1.31,12.71Zm.83,1c-2-2.44,1.07,1.78,1,1.42A12.73,12.73,0,0,1,2.14,13.67Zm2.08.44h0C4.24,14.19,4.54,14.49,4.22,14.11Zm-.72.16h0C3.73,14.44,3.59,14,3.5,14.27Zm-.69-.55c-.06,0,.18.65.24.17C2.93,14,2.92,13.68,2.81,13.72Zm.23-.2H3C3,13.57,3.28,13.8,3,13.52Zm0-.2c-.05,0,.13-.21,0-.06C3.07,13.2,3,13.21,3.08,13.32Zm-.37.16h0C2.72,13.57,3,13.9,2.71,13.48Zm-.2-.86h0C2.59,12.63,2.38,12.42,2.51,12.62Zm-.07.55h0C2.46,13.35,2.89,13.66,2.44,13.17Zm-.39.15h0C2.11,13.3,2,13.17,2.05,13.32Zm1,.13h0S2.81,13.3,3.05,13.45Zm-.23.66c0,.09,0,0,.08.18C3,14.3,2.71,14,2.82,14.11Zm5.49,7.12s0-.14-.07-.16S8.28,21.26,8.31,21.23Zm1.53,1.53c0-.05,0,0-.05-.11S9.61,22.76,9.84,22.76Zm.48.55c0-.07-.1-.17-.15-.11C10.28,23.18,10.21,23.33,10.32,23.31Zm-.48-.13c-2.85-3-4.08-6.12-7.35-9.8C4.17,16.09,8.43,20.89,9.84,23.18Zm-5.79-7c0-3,2.94,3.74,5.86,6C7.2,20.41,9.06,18.77,4.05,16.18Zm2.53,2h0C6.4,18.1,6.69,18.5,6.58,18.18Zm3.23,4h0S9.47,21.79,9.81,22.18Zm.14,0h0C10,22.13,9.71,21.92,10,22.18ZM3.71,14.36c-.07,0,0,0-.09-.07S3.67,14.5,3.71,14.36Zm6.76,9.14c0-.05,0-.13-.06-.13S10.41,23.5,10.47,23.5Zm.09-.32c.09,0-.33-.39-.09,0C10.51,23.15,10.46,23.15,10.56,23.18Zm0-.55h0C10.55,22.57,10.23,22.26,10.56,22.63Zm.49,1.55c-.07-.4,0-.76-.42,0C10.78,23.57,10.29,24.38,11.05,24.18Zm-.18,0h0C10.69,24,10.87,24.41,10.87,24.18Zm.37,0s-.15-.24-.06,0C11.18,24.22,11.26,24.17,11.24,24.18Zm.22.42h0C11.49,24.54,11.19,24.46,11.46,24.6Zm.2.07h0C11.49,24.59,11.66,24.94,11.66,24.67Zm.26.28h0C11.78,24.92,11.76,25.13,11.92,25Zm.68.82c0,.08-.2-.29-.13-.05C12.46,25.77,12.49,25.71,12.6,25.77Zm.56.68s-.13-.34-.11-.07C13.13,26.36,13.09,26.36,13.16,26.45Zm1,.24h0S13.91,26.49,14.18,26.69Zm.24.35h0C14.65,27.11,14.32,26.82,14.42,27Zm.11.55h0C14.61,27.59,14.27,27.35,14.53,27.59Zm.2.39h0C14.79,28,14.49,27.87,14.73,28Zm.17-.48h0C15,27.5,14.68,27.32,14.9,27.5Zm2.41,2c-.11,0,.94.89.22.11C17.39,29.67,17.48,29.43,17.31,29.47Zm-.66-.68h0C16.73,28.9,17.21,29.3,16.65,28.79ZM8.83,20.18c-.17-.1.79.7.22.19C9,20.28,9.07,20.33,8.83,20.18ZM6.45,17c-5.78-6.72,2.63,4.88,11,12.76A157.37,157.37,0,0,1,6.45,17Zm-2.28-4.8h0S4,12.09,4.17,12.18Zm2.6,3.53c0-.05,0-.11-.08-.11S6.72,15.68,6.77,15.71Zm.28.61h0C7.07,16.27,6.83,16.09,7.05,16.32Zm0,.64h0S7.15,17.3,7.05,17ZM20.19,31.45s0,.08.11.09S20.24,31.36,20.19,31.45Zm-.14-1h0C20,30.56,20.34,30.66,20.05,30.46Zm-1-.28h0S19.4,30.43,19.05,30.18Zm.31-.15h0S19.64,30.17,19.36,30Zm-.31-.27h0C19.11,29.79,19.54,30.12,19.05,29.76Zm0-.13h0C19.14,29.75,20.2,30.62,19.05,29.63ZM13.58,24a.11.11,0,0,0,.09.11C13.73,24.08,13.65,24,13.58,24ZM8.33,18s-.09-.2-.09-.09S8.05,18.14,8.33,18Zm.72.24h0C8.57,18.17,7.32,18.16,9.05,18.27Zm-.26.29c-.08-.09-.15-.3-.27-.29C8.62,18.36,8.66,18.5,8.79,18.56Zm.68.94c.23,0-.77-1-.2-.33C9.24,19.3,9.2,19.11,9.47,19.5Zm.7.94h0C10.16,20.38,10,20.22,10.17,20.44Zm3.89,5.07c-.15-.1-.15-.22,0,0Zm4.39,3.85h0C18.51,29.35,18.67,29.5,18.45,29.36Zm-5.7-6.55c-5.13-6.09.18.8,5.44,5.85C18.49,28.64,17.73,28.26,12.75,22.81Zm-.48-2.43c-.14-.18-.24-.2,0,0C12.25,20.49,12.05,19.86,12.27,20.38ZM9.92,18.83c-.05,0,0,0-.11,0S9.88,19,9.92,18.83Zm1.27,1.35c0-.05-.19-.21,0,0Zm.47.84c-.06-.16-.22-.13,0,0C11.65,21.09,11.47,20.64,11.66,21Zm.22.29h0S11.55,21,11.88,21.31Zm.25.87h0C12.12,21.68,11.75,20.43,12.13,22.18Zm.19-.72C13.62,23,10.94,19.74,9.51,18,9.73,18.3,11.53,20.54,12.32,21.46Zm0-.28h0C12.35,21.13,12.08,21,12.32,21.18Zm.59,1.42h0C12.86,22.47,12,21.64,12.91,22.6Zm.26.28h0C13.15,22.82,12.72,22.43,13.17,22.88Zm.31.36Zm2.58,3.13c-.21-.26-.4-.31,0,0C16.17,26.42,14.7,24.72,16.06,26.37Zm0-.68h0C16.06,25.62,15.64,25.46,16.05,25.69Zm1,1h0C17.05,26.63,16.74,26.46,17.05,26.69Zm.56,1.1c-.22-.1-.33-.13,0,0C17.53,27.54,16,26.36,17.61,27.79Zm1.44,1.42h0C19,29,17.6,28,19.05,29.21Zm1,1.29h0C20,30.3,19.11,29.7,20.05,30.5Zm1,.27Zm-1-1.1h0C20.23,30,20.1,29.73,20.05,29.67ZM18.5,28.31a48.2,48.2,0,0,0-5.27-5.47C14.46,24.71,23.93,33.74,18.5,28.31Zm-4.09-5c0-.06,0-.12-.09-.11S14.3,23.33,14.41,23.31Zm.39.87h0C15,24.06,14.62,24,14.8,24.18Zm3.62,3h0C18.57,27.32,18.52,27.08,18.42,27.18Zm1.7,2c-.85-1.55-4.35-4.75-7.67-8.64C13.53,22.28,16.68,25.34,20.12,29.18Zm0-1h0C20.14,28.12,19.88,28,20.12,28.18Zm.07,1h0C20.17,29.31,20.78,29.54,20.19,29.18Zm.74,0h0C21,29.09,20.59,28.91,20.93,29.18Zm.68,0c-.14,0,.95,1,1,1C22.28,29.8,22.56,30.18,21.61,29.18ZM23,29.9c.33.23-2.63-2.41-2.08-1.93A25.25,25.25,0,0,0,23,29.9Zm-.31.17h0S22.36,29.8,22.71,30.07Zm.26.25h0C23.11,30.32,22.5,30,23,30.32Zm-6.69,2.23c-.06,0-.44-.6-.53-.37C16,32.22,15.71,32.31,16.28,32.55Zm7.35-7.25a2.29,2.29,0,0,0-.5-.46C22.94,24.76,24.06,25.74,23.63,25.3ZM9.05,30.79c-.2-.21,0-.12-1.52-.61,0-.06,0-.12-.12-.07C6.83,29.26,5,27.66,4.78,27,2.56,25.05,2.65,23.54,1,22.47-.2,20.22,5.39,27,6.05,27.67,6.91,28.27,8.78,29.73,9.05,30.79Zm-6.72-7c-.22-.22-.83-.93-.33-.11C2,23.21,2.1,24.37,2.33,23.81Zm.72.46h0C3.08,24.15,2.87,24.27,3.05,24.27Zm0,.33h0C3.13,24.45,2.67,24.18,3.05,24.6Zm0-.06h0S3.1,24.87,3.05,24.54Zm0,0h0C3,24.68,3,25,3.05,24.58Zm0,.11h0S3.13,25,3.05,24.69Zm1,.46c0-.15.17.34.14,0C4.11,25.12,4.18,25.12,4.05,25.15Zm-1,0h0C3.07,25.09,2.8,25,3.05,25.15Zm1-.11h0C4.16,25,3.73,24.64,4.05,25Zm0,.27c0-.09-.28-.13-.08,0C4,25.36,4,25.37,4.05,25.31Zm0,.13h0C4.05,25.37,3.89,25.26,4.05,25.44Zm0,.08a2.77,2.77,0,0,1-1,0C3.93,25.44,2.89,25.76,4.05,25.52Zm0-.13h0C4,25.32,3.8,25.19,4.05,25.39Zm.17.55h0C4.22,25.89,4.09,25.68,4.22,25.94Zm0-.26h0C4.09,25.59,4.13,25.91,4.22,25.68Zm.15.26s-.18-.18,0,0C4.31,26,4.4,26,4.37,25.94Zm-.25.24h0C4,26.12,4,26.4,4.12,26.18Zm.75.22h0C4.66,26.29,4.85,26.66,4.87,26.4Zm.18.35h0C5.09,26.64,4.75,26.45,5.05,26.75Zm0,.18h0C5,26.8,4.93,27.22,5.09,26.93Zm.14,0s-.13-.24-.07,0C5.17,26.93,5.23,26.94,5.23,26.93Zm.15.2c.07,0-.19-.21-.11-.09S5.37,27,5.38,27.13Zm.11.05h0S5.39,27,5.49,27.18Zm.55.67H6S5.84,27.64,6,27.85Zm.13.13s0-.24-.09-.06C6.08,27.94,6.07,27.91,6.17,28Zm.72.79h0C6.87,28.57,6.37,28.3,6.89,28.77Zm.4.42h0C7.27,29.07,6.87,28.73,7.29,29.19Zm.2.22ZM8,30c.12-.05-.43-.53-.14-.09C8,29.87,7.89,29.94,8,30ZM9.38,11.48h0C9.36,11.27,8.62,10.51,9.38,11.48ZM22.29,22c.1,0,.12.22.22.17C22.44,22.12,22.37,22,22.29,22Zm.33.18h0S22.86,22.37,22.62,22.18Zm3.43,3.31h0C26.37,25.54,24.28,25.73,26.05,25.49Zm4,.07c-3.33-3.25,6,7.16-14.21-14.23,3.45,4.38,8,10.09,12.2,15.5-4.77-6.23-4.41-4.67-.93-.57-6.08-5.61.21,0-1.85-1.56C26.77,27.86,4.07.19,13.73,12.09c-.61-.13,13.69,15,8.07,10.24,2.22,1.84,4.32,4.09,0,.09-.21,0,9.29,10.2,2,2.76.17,1,4.57,4,1.19,1-6.26-5.7-5.39-5.06,1.07,2.08C16.77,19.53,24,29.32,6.41,5.67c1.53,1.55,6.43,10.24,12.15,15.14C14.47,16.73-.94-4,14.94,16.17c1.49,1.64-2.6-2.78-5.32-6.27.21.79,12.79,15.42,12.24,14-6.24-7.77-6.15-6.56-15.57-20.17C6.15,3.61,16.9,18.35,21.82,22.53a29.91,29.91,0,0,1-6.77-7.93c20.4,24.19-22.83-28.36,4,3C22.94,22.11,15.26,12,9.78,5.1c-.45-.36,12.87,17,2.65,3.28C6.52-.33,8.29.26,20.65,16.68c-.95-1.79-7.81-9-10-13.12,1,1.06,4.71,7.34,4.41,5.83-6.6-8.62-4.61-6.55,3.31,3.68C8.38.33,25,20.19,29.64,24.37,30.65,26.18,23.46,19.13,30.06,25.56ZM15.9,9.84A.19.19,0,0,0,16,10,.17.17,0,0,0,15.9,9.84ZM13.71,7.18h0S13.58,6.92,13.71,7.18Zm2.3,3h0C16,10.09,15.44,9.55,16,10.18Zm.28,1h0S16.08,11,16.29,11.18Zm.42,0h0C16.77,11,16.54,11.09,16.71,11.18ZM10.32,3.06h0C10.23,3.08,10.11,2.83,10.32,3.06ZM21,21.64s0,0-.06-.08S20.84,21.77,21,21.64Zm.51.54h0C21.5,22.06,21.4,22.13,21.55,22.18ZM7,4.85c-.09-.11-.17-.35-.29-.37A1.32,1.32,0,0,0,7,4.85Zm.5.73A3.34,3.34,0,0,0,7,4.88,3.34,3.34,0,0,0,7.45,5.58ZM7.72,6a2.71,2.71,0,0,0-.24-.35A.65.65,0,0,0,7.72,6Zm.15.24h0S7.55,5.84,7.87,6.19Zm.24.35h0C8.14,6.48,7.87,6.26,8.11,6.54Zm.16.2h0S8,6.43,8.27,6.74Zm6.54,8.45s0-.13-.07-.15S14.77,15.24,14.81,15.19Zm.7.78-.16-.15S15.47,16,15.51,16Zm-.46.75h0C15,16.57,14.86,16.63,15.05,16.72Zm1.55,1a.81.81,0,0,0-.24-.28A.51.51,0,0,0,16.6,17.73Zm2.08,2.08h0S18.38,19.56,18.68,19.81Zm.09.09h0C18.84,19.83,18.5,19.86,18.77,19.9Zm.27.28c0-.21-.33,0-.05,0C19,20.14,19,20.21,19,20.18ZM15,16c0,.12,0,0,0,.14C15.07,16.16,15.17,16.18,15,16Zm-8.08-9C6.88,7,6.83,7,6.8,7S6.81,7.07,6.88,7.07ZM9.8,11.18Zm9.76,11Zm.49,0h-.11C19.84,22.16,20.09,22.41,20.05,22.21Zm5,5.08h0C25,27.2,24.61,27,25.05,27.29Zm0-.46c-.16-.22,1.32,1.24.62.45C25.41,27.2,25.66,27.29,25.05,26.83Zm-1-.55h0C24.12,26.38,25.1,27.18,24.06,26.28Zm-2.19-2c-.18-.44-.94-1-2-1.91C20.67,23.72,28.17,30.37,21.87,24.28Zm-2.41-3.65h0C19.43,20.58,19.2,20.47,19.46,20.63Zm.13.59h0C19.65,21.25,19.35,21,19.59,21.22Zm0-.37h0C19.64,20.77,19.27,20.58,19.63,20.85Zm.44.48h0S19.38,20.6,20.07,21.33Zm.18.15h0C20.35,21.34,19.91,21.33,20.25,21.48Zm.24.27h0C20.48,21.68,20.13,21.44,20.49,21.75Zm2.8,1.75h0C23.24,23.49,23.13,23.34,23.29,23.5Zm-12-15a.86.86,0,0,0-.2-.26C11.12,8.3,11.23,8.52,11.29,8.51Zm.19.67h0C11.51,9.12,11.24,8.93,11.48,9.18Zm.12,0c.12.07-1-1.13-.22-.24C11.49,9.07,11.38,8.94,11.6,9.18Zm3.11,3.9h0C14.78,13,14.37,12.74,14.71,13.08Zm.46.1h0S14.82,12.81,15.17,13.18Zm.55,2h0C15.8,14.49,15.51,13.35,15.72,15.18Zm2,1.17c0-.06-.07-.14-.11-.09S17.66,16.34,17.7,16.35Zm.66.72h0C18.29,16.93,17.23,15.9,18.36,17.07Zm.26.66c0-.1,0,0-.11-.24C18.39,17.54,18.39,17.49,18.62,17.73Zm1.43.73h0C20,18.57,20.16,18.34,20.05,18.46Zm-1-.69h0S19.34,18.09,19,17.77Zm.09.4h0C19.06,18.09,18.72,17.86,19.1,18.17Zm1.55,1.76c-.49-.59,0,0-1.55-1.69C19.62,19,19.11,18.26,20.65,19.93Zm.4.11h0C21.08,20,20.85,19.87,21.05,20Zm3,4.14h0C24,24.2,24.22,24.31,24.05,24.18ZM14.94,10h0S15.08,10.3,14.94,10Zm.11-.22h0C14.94,9.77,14.78,9.44,15.05,9.78ZM14,9.18h0S14.13,9.43,14,9.18ZM10.93,4.61c.06,0,.08.13.14.18S11,4.6,10.93,4.61Zm-.65,0A3.24,3.24,0,0,0,10,4.22C9.88,4,9.69,3.78,10.28,4.61Zm.65.66s0-.14-.11-.13S10.92,5.29,10.93,5.27Zm.38.51c0-.1-.15-.25-.22-.25S11.19,5.81,11.31,5.78Zm.74,1.4V7C12,7.11,11.85,6.92,12.05,7.18Zm.14,1h0C12.17,8,12.07,8.29,12.19,8.18Zm.49-1c.09-.26,3.31,5,1.73,2C13.15,7.63,7.51,0,12.68,7.18Zm3.88,7C16.31,13.81,12,8,12.79,9.26A54,54,0,0,0,16.56,14.18Zm.6,1h0C17.22,14.43,16.91,13.37,17.16,15.18Zm.2,0h0C17.41,15.15,17.14,15,17.36,15.18Zm0-1h0C17.4,14.1,17,13.76,17.36,14.18Zm1.26,3a4,4,0,0,1-.08-1C18.52,16.7,18.66,16.35,18.62,17.18Zm.42,0c2.49,1.88,4.28,4.72-1.23-2C17.28,15.15,18.21,15.33,19,17.18Zm.31-.55c-.08,0-.06-.1-.11-.13S19.28,16.7,19.35,16.63Zm0,.55c-.33-.3,2.05,2.3.7.69C19.73,17.64,20.2,18,19.39,17.18Zm1.45,1.21h0C20.89,18.34,20.62,18.19,20.84,18.39Zm.15.13c0-.06-.24-.25,0,0C21,18.54,21,18.54,21,18.52Zm1.82,2h0C22.87,20.45,21.9,19.75,22.81,20.54Zm-4-3.71c0-.07-.06-.09-.11-.11S18.77,16.8,18.8,16.83Zm.2.57h0C19,17.31,18.58,17,19,17.4Zm2.19,2.78h0C21.19,20.1,20.77,19.81,21.19,20.18Zm2.43,2.25a14.28,14.28,0,0,0-2.43-2.53C21.37,20.3,23,21.66,23.62,22.43Zm-2.08-2.19s0,0,.05,0S21.36,20.06,21.54,20.24Zm.14-.06h0C22,20.3,21.61,20,21.68,20.18Zm3.81,4h0C25.47,24.06,24.68,23.48,25.49,24.18Zm-3.48-4c-4.91-5.26-1.59-1,3.55,3.81C24.33,22.56,24.88,23.25,22,20.18Zm1,.75h0C23.06,21.09,24,21.92,23.05,20.93ZM15.4,11.14c0-.07,0-.17,0,0C15.44,11,15.64,11.2,15.4,11.14ZM15.05,11c-.07,0,.21-.13,0-.18C15.15,10.87,15.08,10.78,15.05,11Zm.08-.35c-.17,0,0-.07,0,0Zm-.08-.42c-4.77-4.33,24.58,27.26,3.88,4.71C17.07,12.66,18.15,14,15.05,10.18Zm3.56,3.3h0S18.5,13.19,18.61,13.48Zm-.56-1.18h0S18.31,12.36,18.05,12.3Zm-1-.26c-.06.25.57.52.07.14C17.16,12.06,17.13,12.14,17.05,12Zm.1-.27h-.06C17.09,11.67,16.71,11.46,17.15,11.77Zm4.09,5.41c-.08,0,0-.12-.13-.11S21.2,17.23,21.24,17.18Zm-.19.16h0C21.08,17.29,20.86,17.12,21.05,17.34Zm2,2.08h0C23.06,19.34,22.53,19,23.05,19.42Zm1,.28h0S23.79,19.52,24.05,19.7Zm0,.44s-.31-.54-.33-.33S23.81,19.85,24.05,20.14Zm.19.2h0S24.09,20.18,24.24,20.34Zm.27.28s-.26-.32-.18-.11C24.39,20.44,24.33,20.51,24.51,20.62Zm1.66,1.56c4.9,4.67-7.1-8-8.28-9.29A94.92,94.92,0,0,0,26.17,22.18ZM8.42,18.71c0,.06,0,0,0,.16C8.48,18.82,8.58,18.86,8.42,18.71ZM5.75,16.35c-.08-.32,0,0-.51-.81C5.1,15.68,5.16,15.5,5.75,16.35Zm3.17,4.31a.24.24,0,0,0-.11-.2C8.76,20.54,8.87,20.62,8.92,20.66ZM22.05,19h0C22,19.07,22.43,19.23,22.05,19Zm-11.73,3.1s-.08-.15-.13-.08S10.29,22.12,10.32,22.08Zm16.73,3.81h0C27,26,27.57,26.38,27.05,25.89Zm-2-.5h0C25,25.45,25.33,25.65,25.05,25.39Zm.7-.19c0,.15-.51-.54-.35-.14C25.32,25,25.75,25.46,25.75,25.2Zm.9-.25c.05,0-.14-.23-.13-.08C26.62,24.84,26.52,24.86,26.65,25Zm-1.26,4.38C23.49,31.61,10.71,17,3.86,6.8,3.18,7.46,31,38.07,19.4,24.9c-3.67-5.32-12.64-13.84-14.7-19-1-.56,7.4,8.59,7,9.71C8.12,11.54,1.23.69,10,12.54c2.11,2,15.34,19.71-2.69-3m0-.29s1.81,2.31,1,1.49c-4.72-8.29.6,2.82,16.25,17.07.39.61-13.43-13.8-8.14-8.57C36.55,40.1,13.62,16.63,7.3,9.25ZM5.86,6.75c-.05,0-.06-.11-.13-.13S5.8,6.81,5.86,6.75Zm1.19,2c-.11.05.11.29,0,0A0,0,0,0,1,7.05,8.79Zm3.16,3.29s0-.26-.16-.15Zm.42,1a.45.45,0,0,0-.2-.27A1.35,1.35,0,0,0,10.63,13.09Zm.42.55h0C11.16,13.45,10.59,13.08,11.05,13.64Zm.57.63h0C11.57,14.09,11.15,13.78,11.62,14.27Zm.43.6h0C12,14.76,11.78,14.56,12.05,14.87ZM16.6,20.6c-.11-.25-1.36-1.49-2.41-2.78C12,15.41,11,14.29,16.6,20.6Zm.18-.42h0C16.81,20.13,16.48,19.86,16.78,20.18Zm.29,0h0C17.06,20.09,16.57,19.74,17.07,20.18ZM18,21.57c0-.13-.13-.16-.2-.24A.41.41,0,0,0,18,21.57ZM9.14,12.34c0-.07,0,0,0,0S9,12.3,9.14,12.34Zm.35-.16h0S9.24,12,9.49,12.18Zm.56.62h0C10.18,12.84,10.4,13.11,10.05,12.8Zm.32.38c.15.09-.79-.95-.15-.2A1.82,1.82,0,0,0,10.37,13.18Zm.26,1h0S10.35,13.85,10.63,14.18Zm.38,0c.05.05-.28-.35-.16-.11C10.92,14.08,10.85,14.07,11,14.18Zm.76,1c.1,0-.29-.41-.15-.11C11.73,15.06,11.61,15.08,11.77,15.18Zm.66,1c.18,0-.85-1-.17-.16C12.34,16,12.25,16,12.43,16.18Zm8.78,9h0C22.87,27,27.18,30.49,21.21,25.18Zm-.26,0h0C20.91,25.23,21.25,25.38,21,25.18Zm-.17-.47.11.11C21,24.81,20.72,24.6,20.78,24.71Zm-1.91-1.53c0-.1.36.4.13,0C19,23.15,18.89,23.22,18.87,23.18Zm-.37-1h0S18.81,22.36,18.5,22.18Zm0-.06h0C18.51,22.07,18.5,22.33,18.46,22.12Zm-.24.11h0C18.28,22.33,18.72,22.67,18.22,22.23Zm-2.17-2v.07C16.15,20.23,16.7,20.92,16.05,20.2Zm-.19,0c0-.05.36.32.06,0C16,20.23,15.92,20.15,15.86,20.18Zm-.24,0h0C15.62,20.31,15.84,20.12,15.62,20.18Zm-.44-1h0C15.25,19.2,15.86,19.77,15.18,19.18Zm-.11.08h0S15.25,19.41,15.07,19.26Zm-.49-1.08h0C14.55,18.31,14.77,18.38,14.58,18.18Zm-.06.46s.15.2.11,0C14.61,18.66,14.6,18.7,14.52,18.64Zm-.2-.48h0C14.27,18.32,14.79,18.54,14.32,18.16Zm-.27.09h0C14.2,18.36,14.33,18.29,14.05,18.25Zm0,.11c-2.65-2.88,1.6,2.2,4.65,4.95C17.09,21.69,16.52,20.73,14.08,18.36Zm4.66,5c0,.16.9.81.15,0C18.82,23.46,18.86,23.42,18.74,23.35Zm-4.69-5.41c.09-.08,0,.17,0,.09S14.16,18.07,14.05,17.94Zm-.15-.21c0,.14.15.11,0,0S14.06,18.07,13.9,17.73Zm-.85-.37h0C13,17.44,13.29,17.6,13.05,17.36Zm0-.18h0S13.5,17.55,13.08,17.18Zm-.33-1c-.07,0,.22.32.11,0C12.82,16.21,12.86,16.19,12.75,16.18Zm-.18,0c.08,0,.25.22,0-.05C12.52,16.17,12.58,16.13,12.57,16.18Zm0,0c-.1-.09,1.57,1.74.49.51C12.89,16.45,13,16.68,12.54,16.18Zm.32,1h0C12.69,17.1,13.05,17.55,12.86,17.18Zm-.29-1c.13.63-.12.59.15,0C12.75,16.64,12.8,16.79,12.57,16.18Zm-.24,0h0S12.53,16.39,12.33,16.18Zm-.19-.1s0,0-.09,0S12.07,16.24,12.14,16.08Zm0,.1h0C12.14,16.23,12.49,16.46,12.15,16.18Zm-5-6A.32.32,0,0,0,7,10C7,10.08,7.09,10.11,7.15,10.17Zm.39.55c0-.26-.27-.34-.37-.55A2,2,0,0,0,7.54,10.72ZM22.22,27.34C19.08,24.74,9.18,12.9,8.46,12,9.72,14.76,26.61,32.27,22.22,27.34ZM24,29.18c.29-1-9-8.89-3.38-3.58C21.52,26.62,22.37,26.6,24,29.18ZM19.31,24h0C19.51,24,19.15,23.76,19.31,24Zm5.06,4.88h0C24.38,28.81,24.16,28.7,24.37,28.86Zm.43,0c-1.48-1.47-5.29-4.92-8.34-8.23A115.55,115.55,0,0,0,24.8,28.86Zm.42.35h0C25.24,29.11,24.49,28.69,25.22,29.21Zm-10.54-1c0-.06,0,0,0-.17C14.6,28.15,14.51,28.14,14.68,28.25ZM8.24,23.64h0S8.48,23.87,8.24,23.64ZM17.52,7.09s0,0,0,.09S17.68,7.21,17.52,7.09ZM15.09,4.56c.05,0,0,0,.09-.07C15.11,4.44,14.72,4,15.09,4.56Zm2,2.36c-.07,0,.25.38.07,0C17.12,7,17.1,7,17.05,6.92Zm1,.46h0C18.08,7.44,18.52,7.78,18.05,7.38Zm0,.94c-.25,0,1.16,1.4.18.09C18.1,8.43,18.22,8.43,18.05,8.32Zm1-.24c-.82.24-.2-.31-1,.33C18.23,7.91,17.4,7.73,19.05,8.08Zm-1,.37c0,.19.2,0,0,0ZM15.78,4c.32.43.15-.26-.11-.15C15.83,3.87,15.65,3.87,15.78,4Zm-.73.45c-1.27-1.52,1.8,2.56.22.4C15.24,4.72,15.29,4.86,15.05,4.47ZM17.5,7.53s-.19.17,0,.11S17.49,7.63,17.5,7.53ZM15.8,4.07h0C15.71,4.1,15.86,4.31,15.8,4.07Zm.08-.4c.06.18.17.18,0,0S16.06,4.11,15.88,3.67Zm.17,2.51h0C16,6.24,16.23,6.47,16.05,6.18Zm.29,0c-.63-1,1.27,1.68,0-.08C16.33,6.14,16.35,6.15,16.34,6.22Zm.63.25s.08.31.08.16C17.18,7.16,17.71,7.24,17,6.47ZM16,6.1c.15-.06-.48-.73-.29-.33C15.75,5.78,15.7,5.77,16,6.1Zm.1-.55c-.19-.06-.36-.47-.08,0C16,5.59,16,5.53,16.05,5.55Zm-.54-.37c.21.18.15.3,0,0C14.66,4.45,16.32,6.37,15.51,5.18Zm.69.74s-.3-.4-.06,0C16.16,6,16.15,6,16.2,5.92Zm.85,2.13c.06,0,0,0,.07-.07C17.1,8.13,17,7.68,17.05,8.05Zm-.79-1.87s.27.37,0-.07C16.28,6.12,16.35,6.16,16.26,6.18Zm3.42.56c-.72-1-.16.27.39.49C19.92,7.11,19.93,7.06,19.68,6.74Zm-3.5-.56h0C16.54,6.39,15.55,5.26,16.18,6.18Zm.81,2c.49-.45-.77-1.43,0-.63A2.77,2.77,0,0,1,17,8.18Zm.17-1h0C17.16,7.24,17.27,7.55,17.16,7.18Zm-.63-.35h0C16.46,6.84,16.66,7.17,16.53,6.83ZM14.88,3.61h0C14.77,3.49,14.73,4,14.88,3.61Zm-.26.57h0C14.65,4.45,15.53,5.22,14.62,4.18Zm0,0h0C14.56,4.23,14.56,4.39,14.57,4.16Zm2.75,3.07h0C17.55,7.35,17.29,6.92,17.32,7.23Zm-.61-4.59c-.16,0,0,0-.19-.15S16.77,3,16.71,2.64Zm-.66-.33s-.05.31.07.07C16.13,2.33,16.11,2.38,16.05,2.31Zm2,1.95c-.22.24-.8-1.65-1-.21C17.66,4.29,16.92,4,18.05,4.26ZM16.78,3.18c.24-.19,0,0,.35-1C17.13,3.14,17.19,2.26,16.78,3.18Zm-.72-1h0C15.85,2,16.12,2.48,16.06,2.22Zm0-.41c0,.09,0,.12,0,.16S16.14,1.81,16.06,1.81Zm0,.33h0C15.65,2.21,17.79,2,16.05,2.14Zm2.7,3.48h0C18,4.49,19.37,6.65,18.75,5.62Zm-.55-.44h.09C18.43,5.48,18.37,4.93,18.2,5.18Zm1,1.37c.13-.07.05-.12-.18-.37C18.91,6.31,19.23,6.32,19.21,6.55ZM15.86,1.18c0-.08,0-.09,0,0S16.23,1.67,15.86,1.18Zm2.08,3.41c.1-.08,0,0,.11,0S17.83,4.43,17.94,4.59Zm.26.13s0,.07,0,0S18,4.77,18.2,4.72ZM18,4.39s.06.08,0-.11C18,4.3,18,4.24,18,4.39Zm-3-3.56h-.13C15,.73,15,1.09,15.05.83ZM14.56,0s-.11.22,0,0C14.52,0,14.6.1,14.56,0Zm.15.35h0C14.73.42,15,.4,14.71.36Zm0-.13h0S14.76.42,14.71.23ZM15,.58h0C14.84.45,14.74.62,15,.58Zm2,5.28c.58.62-.32-.62-1-1.52C16.17,4.71,16.2,4.65,17,5.86Zm.31.32h0C17.18,6.08,17.42,6.51,17.34,6.18ZM15.51,1.07c0,.15.65.72.06,0C15.71,1.24,15.43.69,15.51,1.07Zm-.46.24c-.07.19,1.65.13.37,0Zm.26-.13h0C15.29,1.33,15.47,1.18,15.31,1.18ZM13,.18c4,1.21,9.65,13,18.11,20.18A128.48,128.48,0,0,1,13,.18ZM30.74,19.56c.23.12.37.45.6.49C31.14,19.9,31,19.6,30.74,19.56ZM29,17.73c.12.25,0,0,.5.62C30,18.78,31.77,20.51,29,17.73Zm.1-.18h0C29.06,17.66,29.4,17.83,29.05,17.55Zm-1-.37v.07S28.23,17.28,28.05,17.18Zm-11.62-14a.47.47,0,0,0,.26.35C16.6,3.41,16.57,3.23,16.43,3.17Zm-.22-.31c.05.14.15.13,0,0S16.24,3.15,16.21,2.86ZM16.06,3c0,.08,0,0,0,.18C16.19,3.16,16.29,3.25,16.06,3Zm-.2,1.48c-.06.17,0,0,.2.4C16.26,5,16.43,5.23,15.86,4.48Zm-.66-3.3h0C15,1.08,15.31,1.58,15.2,1.18Zm0,4s.31.2,0,0C15.29,5.08,15.13,4.88,15.2,5.14Zm4.9,5c-.15.41,0,.68.07,0C20.28,10.77,20.17,11.15,20.1,10.18Zm-.66,0c.45.73.88,1-.22-.33C19.19,9.91,19.21,9.88,19.44,10.18Zm-.5-1h0C18.9,9.25,19.27,9.63,18.94,9.18Zm.19,0h0C19.08,9.2,19.18,9.4,19.13,9.18Zm-.3.19c-.19-.64-.18.11.5.45C19.11,9.83,19.13,9.38,18.83,9.37Zm-1-1.73h0C17.71,7.6,18,8,17.82,7.64Zm.74,1h0C18.57,8.59,18.38,8.44,18.56,8.67ZM29.23,20.88c2.12,1.74.47-.94.44,1.29C30.08,22.36,29.09,20.27,29.23,20.88ZM17.14,7.76c-.06-.12-.19-.13.26.42C17.61,8.34,17.71,8.49,17.14,7.76ZM29,20.61c.11-.11-1.37-1.27-.48-.5C28.4,20.27,29.21,20.62,29,20.61Zm.24-.43c0,.05.2.2,0,0ZM27.05,18c-.1,0,.25.47.2.14C27.2,18.18,27.22,18.16,27.05,18Zm-5.22-5.33c1.68,2.7,4.55,4,.22,1.73C24.09,14.32,21.41,13.2,21.83,12.71Zm1.82,2.23c-.08,0,.28.25.07,0Zm0,0s-.15-.05-.09.09C23.54,14.88,23.68,15.15,23.65,14.9Zm-.9-.72h0C22.59,14.36,23.17,12.45,22.75,14.18Zm-.55-.92s.11.25.09,0S22.29,13.31,22.2,13.26Zm-1-1.25c-1-1.21-.51-.41.27.57C21.63,12.45,21.67,12.55,21.24,12ZM17.08,6.65c-.06,0,.13.38.16.2S17.11,6.86,17.08,6.65ZM18.44,20c.18.3-.73,1.13.61.44C18.9,20.17,18.66,20.68,18.44,20Zm-.33-.35h0C17.94,19.78,18.75,20.27,18.11,19.67ZM8.47,9c-.1.1-.17-.44-.42-.37C8.24,8.58,8.06,8.94,8.47,9Zm5.66,7.73c0-.07-1.12-1.39-.35-.33C13.75,16.31,14.47,17,14.13,16.72Zm-.08.55c.46.07-.71-.73,0-.15C14,17.2,14,17.08,14.05,17.27Zm5.1,3.61h0C19.15,20.83,19.12,20.73,19.15,20.88Zm9.5-2.35c-5.88-5-23.23-28.17-11.47-14A155.42,155.42,0,0,0,31.39,20.69,67.63,67.63,0,0,1,19.05,7.11C9-4.1,35.45,25.77,28.65,18.53Zm-.25-.8a34.53,34.53,0,0,0,2.65,2.58C30.31,19.57,30.07,19.32,28.4,17.73Zm-.35-.2h0C28,17.66,28.43,17.73,28.05,17.53Zm0-.19h0C28,17.41,28.39,17.53,28.05,17.34Zm0-.27h0C27.93,17.08,28.5,17.39,28.05,17.07ZM17.33,4.66c-.08,0,.33.53.29.31C17.55,5,17.58,4.89,17.33,4.66Zm-3.76-4c0,.05-.2-.29-.13-.06C13.52.48,13.43.55,13.57.61Zm.28.55h0C13.94,1.12,13.66.79,13.85,1.16Zm1.1,1h0C15,2.12,14.62,1.75,15,2.18Zm2.2,3h0C17.2,5.12,16.89,5,17.15,5.18Zm2.34,3h0C19.51,8.09,19.24,8,19.49,8.18Zm.4.94h0S19.64,8.92,19.89,9.12ZM21,10.46h0S20.71,10.22,21,10.46Zm.38.48h0C21.37,10.84,20.67,10.12,21.36,10.94Zm.24.22h0C21.54,11.15,21.33,11,21.6,11.16Zm1.56,1.51c.05,0-.12-.23-.11,0C23.07,12.65,23.08,12.59,23.16,12.67Zm.29.51h0S23.1,12.83,23.45,13.18Zm.18,0h0S23.4,13,23.63,13.18Zm.11.1c0,.11.09.09.11.16C23.86,13.34,23.74,13.34,23.74,13.28Zm.55.66c-.11,0-.16-.13,0,0S23.46,13.07,24.29,13.94Zm.15.24h0S24.17,14,24.44,14.18Zm.64,1c.14.05-.72-.74-.42-.47C24.78,14.9,24.67,14.69,25.08,15.18ZM29,19C31,21,32.67,22.75,25.18,15m-.05-.1h0C25.52,15.48,31.71,21.77,25.13,14.87Zm-8.7-9s0-.16-.05,0C16.35,5.72,16.31,5.66,16.43,5.82Zm.13.11c-.08.18.6.7.42.61A1,1,0,0,0,16.56,5.93Zm.7-1.42c.25-.14-1-1.1-.11-.2C17.13,4.33,17.07,4.46,17.26,4.51ZM15.14,4s-.19-.39-.15,0C15,3.9,15,3.88,15.14,4Zm4.15,17.09c.06-.08,0-.17-.11-.24C19.15,20.93,19.21,21,19.29,21.05Zm11.76.08h0v0ZM20.39,11.05h0C20.64,11.13,20.21,10.58,20.39,11.05Zm-.34-.11h0C19.54,10.39,20.58,11.59,20.05,10.94Zm-1.28-2h0C19.21,9.57,18.42,8.48,18.77,8.9Zm.64,1c.25.26.94,1,0-.13C19.42,9.84,19.45,9.76,19.41,9.91Zm1.05,1.31c-.25-.08.22.49,0,.07C20.46,11.3,20.47,11.23,20.46,11.22Zm.79,1h0C21.23,12.25,21.29,12.41,21.25,12.2Zm-.44-.44c.09,0-.25-.45-.2-.15C20.72,11.6,20.62,11.6,20.81,11.76Zm8.84,8.42c-1.12-.8-3.4-3.28-3.6-3.14C24.39,15.21,24.87,15.46,29.65,20.18Zm-4.6-5c0-.45-2.36.61-.35,1C25,15.89,25.16,16.36,25.05,15.18Zm1,2h0C26.1,17.15,26.18,17.37,26.05,17.14ZM14.26,2.73s.4.59.18.11C14.42,2.67,14.48,3,14.26,2.73ZM12.83,1.55c-.58-.71.11.25,1.84,2.69C14.24,3.43,14,3.24,12.83,1.55Zm1.36,1.63h0C14.63,3.78,13.68,2.43,14.19,3.18Zm0,0h0C14.36,3.16,14,3,14.22,3.18Zm4.41,6.1c1.48,2.76,18.61,20.78,5.42,7.27C35.82,29.19,18.5,12,14.62,4.36c-4.3-5.81-2.13-3.95,3.18,4C18.17,8.09,18.38,9.5,18.63,9.28ZM13.05,1.94c0,.14,0,.09.16.29C13.24,2.12,13.2,2.23,13.05,1.94ZM13.71,3a.59.59,0,0,1,.07.29A.19.19,0,0,0,13.71,3Zm.22.86c-.09-.1-.16-.35-.28-.35A1.19,1.19,0,0,0,13.93,3.85Zm.12-.35c-.07-.12,0-.19-.17-.22C13.86,3.36,13.83,3.34,14.05,3.5Zm.14.11c-.08,0,0,0-.13-.09S14.24,3.88,14.19,3.61Zm3.86,4.94h0C17.87,8.51,18.29,9,18.05,8.55Zm0,.37Zm0,.2h0S17.92,9.21,18.05,9.12Zm0,.17h0C17.94,9.14,18.07,9.5,18.05,9.29ZM30,22.19h0C29.94,22.25,30.26,22.53,30,22.19Zm-6.55-6.33a.42.42,0,0,0,.09.14C23.49,15.92,23.48,15.86,23.41,15.86Zm-.29-.32c0,.07.1.2.14.1S23.19,15.54,23.12,15.54ZM18.8,10a.15.15,0,0,0,.09.16A.12.12,0,0,0,18.8,10ZM14.06,2.36c-.06-.28-.52-.39,0,.05C14.09,2.5,14.3,2.62,14.06,2.36Zm7,9.66h0C21,12.05,21.37,12.36,21.05,12Zm6.26,6.91c0,.07.15.22.2.13S27.42,18.86,27.31,18.93Zm.46.44h0C27.81,19.32,27.17,18.94,27.77,19.37Zm-.83-1.19c-.11,0,.42.45.29.17C27.11,18.33,27.27,18.26,26.94,18.18Zm-13.8-2.54c-.06-.1,0-.15,0,0C13.86,16.37,12.7,14.92,13.14,15.64Zm8.45-3.46c-.05.06.18.27,0,.06C21.61,12.22,21.64,12.24,21.59,12.18ZM26.39,18a.35.35,0,0,0-.14-.24A.23.23,0,0,0,26.39,18Zm1.81,1.84c0-.07,0-.15-.06-.15S28.13,19.84,28.2,19.85ZM25.05,17.1s-.05-.31-.17-.16S25,17,25.05,17.1Zm-2-3.29s-.07-.32-.15-.09C22.91,13.8,22.9,13.71,23.05,13.81Zm1.24,1.83c0,.07,0,.14.06.11A.3.3,0,0,1,24.29,15.64Zm-.81-.46h0C23.59,15.25,23.4,14.92,23.48,15.18Zm1.64,1h0C25.14,16.11,24.92,16.12,25.12,16.18Zm-.17,0c.14,0,0-.15,0-.07S24.88,16.18,25,16.18Zm2.88,3.2c-.13.07.59.54.13.15C28,19.46,28,19.52,27.83,19.38ZM12.53.27c.65,1.37-.66-.62,2.75,3.71C14.27,2.7,15,3.45,12.53.27ZM14.74.18c1.46.6,12.85,17.47,8.31,10C22.31,12.69,15.86,1.8,14.74.18Zm9.39,11.55s0-.12,0-.14S24.05,11.75,24.13,11.73Zm-.65-.79c0,.1.08.13.13.2C23.66,11.05,23.51,11,23.48,10.94Zm-.29-.31c.06.11,0,.19.18.2C23.33,10.75,23.31,10.64,23.19,10.63Zm-.13-.19a.16.16,0,0,0,.11.17A.34.34,0,0,0,23.06,10.44Zm-.35-.26s.1,0,0-.11S22.81,9.94,22.71,10.18Zm-.16-.31s0-.13-.08-.14S22.48,9.87,22.55,9.87Zm-.13-.14c0-.06,0-.12-.06-.11S22.39,9.71,22.42,9.73Zm-.37-.49s0,0,0,0S21.84,9.11,22.05,9.24ZM13.05,1V.91C13.39,2.15,11-.86,13.05,1ZM7.05,4h0C7.06,4.12,7.46,4.6,7.05,4ZM22.64,1.75c0,.12.07.09,0,0S22.69,2.13,22.64,1.75ZM26.3,6.18c-.27-.24,2,2.16.35.39C26.55,6.44,26.68,6.55,26.3,6.18Zm-4.21-5c.15.1.66.79.16,0C22.17,1.26,22.23,1,22.09,1.2Zm.11,1h0C24,4.29,20.52,0,22.2,2.18Zm-11,7.62h0C11.17,9.86,11.28,10,11.17,9.8Zm-.05-.39c0,.08.11.14.15.22C11.27,9.5,11.12,9.37,11.12,9.41ZM8.42,5.93a.7.7,0,0,0,.19.26C8.56,6.11,8.49,5.92,8.42,5.93Zm2.4,3.48s.24.2.18.2C11.42,10.09,10.69,8.93,10.82,9.41ZM11,9.32s0-.17-.11-.11S11.07,9.37,11,9.32Zm-.7-.68c.07,0,0,0,.07.15S11,9.5,10.34,8.64Zm.44.4c-.1-.08.71.94.07,0C10.92,9.19,11,9.14,10.78,9Zm18.08.37c-.09-.13-.18-.3-.3-.29A.42.42,0,0,0,28.86,9.41Zm0-.23h0C29,9.33,29.16,9.16,28.86,9.18Zm-.31,0h0C29.09,9.5,27.14,7.63,28.55,9.18Zm.84.67h0C28.93,9.56,29.86,10.52,29.39,9.85Zm.61.85h0C30.86,11.22,28.92,9.45,30,10.7Zm-.91-1.13h0C28.89,9.56,29.48,10,29.09,9.57ZM26.85,7.14a10.5,10.5,0,0,0,1.6,1.8Zm1.73,2.09s.12-.08,0-.05C28.61,9.16,28.51,9.22,28.58,9.23ZM27.9,8h0C27.91,8,27.34,7.4,27.9,8Zm4,4.22c-.08,0,.23.37.19.14C32,12.35,32,12.31,31.86,12.24Zm-.77-.85c-.28-.26,1.35,1.41.09,0C31.15,11.37,31.08,11.34,31.09,11.39Zm.09.39h0C31.11,11.89,31.68,12.23,31.18,11.78Zm.42.4h0C31.32,11.9,31.56,12.45,31.6,12.18ZM12,11c0-.07.12.07.07-.11C12,10.87,12,10.8,12,11Zm6.84,7.69s-.17-.17-.15-.11S18.77,18.69,18.8,18.65Zm4.68-.47c10.7,9.48,3.82,5.08-2.43-2.38,4.13,2.77,7.58,10.81,5,3.41C12.93,10,4.05-7.57,23.48,18.18Zm5.05,5s-.14-.17-.2-.13C28.42,23.14,28.44,23.22,28.53,23.22Zm.52.22c-.11-.13,1,.88.25.13C29.23,23.52,29.28,23.6,29.05,23.44Zm-3-2.75c.12.33,4.46,4.19.88.84C26.86,21.34,26.73,21.25,26.05,20.69Zm0,0c.06,0,0,0,.11,0S26,20.4,26.05,20.65Zm-1-.55h0C25.19,20.14,25.82,20.8,25.05,20.1ZM19.54,14a.34.34,0,0,0,.19.35C19.79,14.16,19.6,14.1,19.54,14Zm.19,6c-.18-.34-.63-.6-.8-.83A4.49,4.49,0,0,0,19.73,20Zm.32-5.1h0C21,15.75,18.5,13.07,20.05,14.86Zm.82,6.33h0C20.89,21.06,20.14,20.55,20.87,21.19Zm-.5-.54h0C20.37,20.72,20.65,20.92,20.37,20.65ZM8.84,2.63h0C8.87,2.74,9,2.78,8.84,2.63ZM23.05,16.24c-.17-.15-.22-.16,0,0C23.18,16.2,22.73,15.79,23.05,16.24ZM29,23.16C26.15,21.8,14.18,6.55,11.49.76c-.13.5,16.35,23,16.08,20.82-6.31-7.3-9.14-9.24-16.06-20.83C11.65,1.73,22.41,15.4,29,23.16ZM15.73,7.42c0,.07-.05,0,0,0S15.51,7.2,15.73,7.42Zm.17.22c-.05-.14-.11,0,0,0S15.73,7.36,15.9,7.64Zm.16.21L15.9,7.7S16,8.06,16.06,7.85Zm.19.26h0C16.2,8,16,8.2,16.25,8.11Zm.13.2h0S16.11,8.2,16.38,8.31Zm.87,1.17c.08.06-.66-.86-.1-.05C17.15,9.42,17.24,9.42,17.25,9.48Zm0,.28h0C17.17,9.65,16.78,9.4,17.21,9.76Zm.55.3c0,.09-.33-.39-.17-.17S17.63,9.86,17.76,10.06Zm.49.54c-.07,0-.05-.09-.11-.09S18.22,10.66,18.25,10.6Zm.29.43c.06,0-.29-.52-.22-.17C18.41,10.84,18.29,10.88,18.54,11Zm.51.29h0C19,11.25,18.81,11.05,19.05,11.32Zm.25.65h0S18.63,11.21,19.3,12Zm1.21,1.4h0S20.27,13.17,20.51,13.37Zm.15.11c-.08.07-.3-.2,0,0C20.63,13.54,20.65,13.52,20.66,13.48Zm.44.55h0C21.1,13.91,20.75,13.82,21.1,14Zm.35.54c-.05-.06.08-.07-.4-.39C21.24,14.28,21,14.19,21.45,14.57Zm.53.49Zm.24.24c0,.07-.19-.3-.18,0C22.13,15.24,22.06,15.36,22.22,15.3Zm.15.22c0,.05-.07-.34-.15-.08C22.33,15.38,22.21,15.59,22.37,15.52Zm1,1.11c-.08,0-.14,0,0,0S22.89,16.11,23.37,16.63Zm.68.51h0S23.71,16.83,24.05,17.14Zm0,.09h0C24,17.29,24.27,17.52,24.05,17.23Zm.13.32h0S23.93,17.39,24.18,17.55Zm0,.14c0,.07-.1-.19-.11,0C24.1,17.67,24.09,17.65,24.16,17.69Zm1.16.59c-.07-.09,0-.06-.27-.24C25.16,18,25.08,18.07,25.32,18.28Zm-.09.35h0C25.18,18.47,24.93,18.65,25.23,18.63Zm4.61,5.14c-.24-.23-.48-.46-.74-.68A2.82,2.82,0,0,0,29.84,23.77Zm1.33-2c1.5,1.22-6.34-4.14-14.37-16C22.5,12.73,22.44,12.6,31.17,21.78ZM24.29,14.6c-.09-.08,0-.21-.4-.38A2,2,0,0,0,24.29,14.6Zm.2.58h0C24.5,15.11,24.21,14.89,24.49,15.18Zm.56.05h0S25,15,25.05,15.23Zm1.07,1.21c-.08,0-.11-.18-.07.06C26.12,16.45,26,16.71,26.12,16.44Zm4.5,4.74c.07.11-.83-.65-.55-.46C29.84,20.6,31.13,21.79,30.62,21.18Zm.44.51h0C31.09,21.63,30.84,21.49,31.06,21.69ZM19,13.34s0,0,0,.11S20,14.49,19,13.34ZM16.4,10.52c-.54-.22,1.42,1.76.18.31C16.58,10.64,16.61,10.83,16.4,10.52Zm-3.35,2c.06,0,.49.53,0-.05C13.11,12.45,13.06,12.44,13.05,12.49Zm17-1.6h0C30,11,30.4,11.24,30.05,10.89Zm-18-.17c-.39,0,0,.32-1,0C12,10.86,11.26,10.21,12.05,10.72Zm2.8,3.54h0S14.46,13.84,14.85,14.26Zm-2.41-2.69s.45.61.2.17C12.59,11.82,12.67,11.79,12.44,11.57Zm-.23-.69a4.85,4.85,0,0,0-.5-.69A1.64,1.64,0,0,0,12.21,10.88Zm.09.3s-.2-.36-.15-.09C12.27,11,12.14,11.1,12.3,11.18Zm0,0h0C12.2,11.28,12.51,11.53,12.3,11.18Zm1.33,2c-.13-.21-.09.18.13.15C13.72,13.31,13.77,13.32,13.63,13.18Zm-.77-.39c0,.12,0,0,.19.26C13,12.94,13.08,13,12.86,12.79Zm0-.83c0-.05.11.45.15.11C12.92,12.05,13.09,12,12.9,12ZM11.57,10.4c.19,0-.45-.7-.11-.09C11.52,10.28,11.55,10.2,11.57,10.4ZM13,12.26h0C12.92,12.3,13.21,12.56,13,12.26Zm-.11-.51h0C12.78,11.76,13.12,12,12.86,11.75ZM16.93.23c0,.22.59,1,.09.08C17,.35,17,.29,16.93.23Zm3.43.53c3.16,4.6,7.34,9,11.68,13.81C31.14,14.71,22.79,4.93,20.36.76ZM31.55,14.07c.05.09.13.07,0,0S32,14.57,31.55,14.07ZM20.08,7.3c.05,0,.09.36.22.18C20.17,7.46,20.29,7.36,20.08,7.3Zm5.63,1.1c0-.12,0,0-.07-.22C25.56,8.23,25.59,8.17,25.71,8.4ZM23.63,4.32a53.53,53.53,0,0,0,8.45,9.86C30.05,12.08,26.48,7.83,23.63,4.32ZM21.94,2.84c-.12.17,2,2.49.84,1.08A4.13,4.13,0,0,0,21.94,2.84Zm6,7.88c-.16-.06-.4-.41-.13.07C27.81,10.79,28.6,11.55,27.94,10.72ZM23.48,4.48c-.09,0,0,.21.08.2S23.49,4.56,23.48,4.48ZM24,6.83c.49-.43,1.28,1.84,1.17,1.07C25.66,8.61,25.39,8.73,24,6.83Zm1.25,2h0C25.45,8.92,25.15,8.37,25.27,8.81Zm-.75-1c.16.16.53.15,0,0C24.51,8.28,23.72,8,24.52,7.85Zm-.21-.28h0C24.29,7.65,24.54,7.85,24.31,7.57Zm1.26,1.31h0C25.39,8.65,25.36,9,25.57,8.88ZM16.91.52c.06-.15,0,0-.13-.34C16.65.22,16.62.14,16.91.52ZM31.23,16c2.11,3-1.71-1.08-3.51-2.75,14.09,17.07-26.24-30.66-.79-.92C25.8,11.15,20.35,5.89,17.32.18c4.89,2.9,4.17,6.56,15.15,16.59C24.44,9.11,33,19.92,19,.4c-.4-1.39,7.09,9.49,6,7.37-9.74-12.26-1-1.52,1.93,2.06,1,1.13,8.57,9.37,2.16,3,1.74,1.47,5.59,6,1.33,2.53C27.23,12.16,24.08,8.84,31.23,16Zm-1.45-3s.1.12.13.09S29.86,12.91,29.78,13Zm-.13.2s.2.15,0,0C29.63,13.11,29.72,13.16,29.65,13.18Zm-.25-1c-.08,0,.4.45.11,0C29.47,12.22,29.52,12.2,29.4,12.18ZM24.72,7.3c.08.08.11.21.18.29A.24.24,0,0,0,24.72,7.3Zm.33.74h0C25.09,8,24.85,7.89,25.05,8Zm0,.2h0C25.1,8.15,24.73,7.91,25.05,8.24Zm1.43,1.15c.05,0,0,0,.07.13S26.84,9.73,26.48,9.39Zm-.11-.21h0S26.19,9,26.37,9.18Zm.51,1c.18.19-2-2.31-.35-.29C26.67,10,26.54,9.87,26.88,10.18Zm.33,0h0C27.23,10.08,26.67,9.65,27.21,10.18Zm.11,0h0C27.34,10.12,27.11,10,27.32,10.18Zm.17,1h0C27.5,11.12,27.18,10.88,27.49,11.18Zm.25,0h0C27.7,11.1,27.48,11,27.74,11.18Zm1,1h0C28.72,12,27.93,11.33,28.72,12.18Zm-3-3h0S25.54,8.93,25.7,9.18Zm.35.44h0C26.09,9.46,25.62,9.2,26.05,9.62Zm.31.31s0-.1-.11-.09S26.32,10,26.36,9.93Zm.05.15c.09,0,.06.1.11.14S26.46,10.05,26.41,10.08Zm.68.75c-.06-.14-.18-.13,0,0C27.17,10.81,26.76,10.31,27.09,10.83Zm.26.24c0,.06,0,.12.07.11S27.4,11.08,27.35,11.07ZM19.12,2.18H19C19,2.28,19.15,2.25,19.12,2.18Zm-.07-.43s0,0-.08,0S19.07,2.05,19.05,1.75Zm.53,1.53a.19.19,0,0,0-.11-.18A.42.42,0,0,0,19.58,3.28Zm2.47,2.51h0S22.26,6,22.05,5.79ZM20.36,4.18s-.16-.38-.31-.29C20.14,3.92,20.06,4,20.36,4.18Zm.31,0h0C20.6,4.16,20.08,3.5,20.67,4.18Zm.22,1h0C20.92,5.09,20.57,4.85,20.89,5.18ZM21,5.12h0S20.82,4.82,21,5.12Zm.05.3h0S20.79,5.06,21.07,5.42Zm0-.54Zm.22.54h0S21.11,5.3,21.33,5.42ZM22.38,7h0C22.3,6.91,22.16,6.89,22.38,7Zm1.24,1c.33.28-3.72-4.5-1.88-2.3A12.68,12.68,0,0,0,23.62,8Zm.4.49h0C24,8.41,23.28,7.69,24,8.47Zm0,.13h0C24.08,8.51,23.85,8.37,24.05,8.6Zm.32.24Zm.44.55h0C24.85,9.34,24.41,9,24.81,9.39Zm.46.55h0C25.35,9.91,25,9.65,25.27,9.94Zm.05-.33h0C25.37,9.58,25.1,9.43,25.32,9.61Zm.07.44c0-.06,0-.12-.11-.11A.13.13,0,0,0,25.39,10.05Zm.22-.14h0C25.56,9.9,25.36,9.72,25.61,9.91Zm.63.75c.08,0-.2-.24-.15-.07C26.08,10.59,26.11,10.65,26.24,10.66ZM16.52.22c0-.06-.09-.15-.11-.11S16.44.22,16.52.22Zm1.29,1.44c0-.06,0,0,0-.11C17.78,1.65,17.59,1.47,17.81,1.66Zm.13.2c-.05,0,0-.13-.09-.09S17.92,1.9,17.94,1.86ZM27.7,13.43s0,0,0-.08C27.61,13.42,27.44,13.19,27.7,13.43Zm1.84,2.11a1.3,1.3,0,0,0,.3.32A.67.67,0,0,0,29.54,15.54ZM28.2,13.28c-.07-.08-.19-.23-.26-.24C28,13.12,28.08,13.24,28.2,13.28Zm.18.18c-.05,0-.13-.17-.18-.13S28.34,13.48,28.38,13.46Zm2.67,2.26c-.48-.4-3.62-3.82-.61-.53C30.69,15.24,30.39,15.15,31.05,15.72Zm0,.17c-.05,0-.24-.29-.06.07C31,16,31.05,15.89,31.05,15.89Zm0,.18h0C31,15.9,30.86,16.09,31.05,16.07Zm.77,2.11c-.07-.09.26.08.05-.09C31.84,18.08,31.89,18.1,31.82,18.18ZM17.39,1.09c.07,0,0,0,.11-.05S17.12.58,17.39,1.09ZM20.3,7.53s0,.09,0,.13S20.53,7.91,20.3,7.53Zm1.38,1.84c.07.19.3.11.57.7C22.37,10.05,22.08,9.58,21.68,9.37Zm.44-.27s-.06.12-.07,0C22,9.18,22.11,9.35,22.12,9.1Zm.93,1.08v0C22.28,9.36,24.69,12.15,23.05,10.18ZM21,8.51h0C19.63,6.67,22.28,10.23,21,8.51Zm-.26-7.42c.08,0,0,0,.13,0S20.65.72,20.76,1.09ZM20.34.54c.07-.08.36.58.38.29C20.63.8,20.69.54,20.34.54Zm1.71.87c-1.44-.32-1.27-.19,0,1.43C21.91,2.06,21.27,2.51,22.05,1.41Zm1.36,9.84c0,.16,0,0,.24.33C23.88,11.58,23,10.93,23.41,11.25Zm1.65,1.93C29.24,15,31.6,22.28,16.19.82,20.32,5.75,43,31.16,25.06,13.18Zm4,2.36v.06S29.21,15.64,29.05,15.54ZM16.88,1.46c-.06,0-.06-.2-.13-.13S16.83,1.51,16.88,1.46Zm.16.29c0-.07,0,0-.1-.15C16.92,1.65,16.94,1.6,17,1.75ZM29,15.91A175.89,175.89,0,0,1,17.68,2.41C17.78,2.42,20,6.73,29,15.91Zm.52,1.27h0C29.46,17.13,29.13,16.83,29.48,17.18Zm.11-.55c0-.08,0,0-.2-.17C29.39,16.54,29.42,16.48,29.59,16.63Zm.17.42h0C29.79,17,29.48,16.78,29.76,17.05Zm.55,1.13h0C30.3,18.24,30.49,18.34,30.31,18.18Zm.85,0s-.14-.07-.11-.07S31,18.16,31.16,18.18Zm-.26,0h0C30.86,18,30.63,18.22,30.9,18.18Zm.38,0h0C31.32,18.12,30.83,17.78,31.28,18.18Zm.17,0h0C31.36,18.21,31.78,18.42,31.45,18.18Zm-1.1-.76h0C30.49,17.67,32.33,19.36,30.35,17.42Zm0,0h0C30.31,17.19,29.41,16.61,30.35,17.42Zm-2.13-1.23c.19,0,.24.32.4.31C28.5,16.42,28.34,16.14,28.22,16.19ZM25.29,13c.06,0-.58-.74-.3-.22C25.09,12.71,25,12.72,25.29,13Zm-.15-.88c0,.15-.09-.22-.09,0C25.11,12.05,25.18,12.46,25.14,12.12Zm5.91-.94c-.51.08.13-.17,0,.11C30.64,11.25,30.52,11.2,31.05,11.18Zm-6.7,1.18c.11,0-.56-.91-.66-.66A6.57,6.57,0,0,1,24.35,12.36Zm.89-7.18h0C25.3,5.3,26.25,6.27,25.24,5.18Zm.25,1c.06-.64-.17-.42.24,0C25.7,5.77,25.73,6.18,25.49,6.18Zm-.22-1h0S25,5,25.27,5.18Zm-.18,0h0C25.08,5.1,24.58,4.59,25.09,5.18ZM26.14,6h0C26.06,6,26.46,6.32,26.14,6ZM20,2a41.8,41.8,0,0,0,4,5.07C23.61,6.86,16.88-2.08,20,2Zm5.12,2.93h0C25.23,5.14,25.15,4.64,25.08,4.94Zm1,1h0C26.13,5.91,25.82,5.69,26.11,6Zm4.94,5.76h0C31.12,11.61,30.79,11.47,31.05,11.74ZM24.81,4.61c.07.55,1.42,1.42.24.33C25,4.85,25.06,4.8,24.81,4.61Zm3.81,4.22c-.22-.22,2.2,2.32,1.77,1.84A19.12,19.12,0,0,0,28.62,8.83Zm2.43,2.75h0C31.16,11.57,30.68,11.22,31.05,11.58ZM26.78,7.19h0C26.83,7.05,26.24,6.64,26.78,7.19Zm-2-2.75h0C24.73,4.33,24,3.58,24.77,4.44Zm1.35,1.74c-.28,0,1.5,1.68.26.26C26.24,6.43,26.41,6.42,26.12,6.18ZM23.19,2.51c-.14-.09-.09-.09,0,0C23.05,2.09,23.23,2.66,23.19,2.51ZM23,2.62c-.71-.74,3.28,4,.62.76A3,3,0,0,0,23,2.62Zm-.2-.55c.1.16.13-.1,0,0S22.77,2,22.82,2.07Zm-6,1.8h0C16.8,3.8,16.91,3.62,16.78,3.87Zm13.27,8.54C29,11.67,22.3,2,21.66,1.75,19.74.27,33.59,17,30.05,12.41ZM23.56,3c-.12-.12-.15-.2,0,0C23.5,3.07,23.44,2.65,23.56,3Zm.68,1.14h0C24.22,4.1,23.66,3.51,24.24,4.18Zm-.32-.84-.14-.15C23.78,3.27,23.87,3.38,23.92,3.34Zm.46.84h0S24.06,3.93,24.38,4.18ZM23.63,3.1c0,.12.07.07,0,0C23.91,3.52,23.5,2.79,23.63,3.1Zm-.22-.44c-.12-.07-.2-.13,0,.17C23.44,2.78,23.32,2.81,23.41,2.66Zm.09.18c0,.07,0,.09.06.11S23.56,2.84,23.5,2.84ZM3.05,13.18h0C3,13.3,3.36,13.43,3.05,13.18Zm1.41,12c0,.1.28.28.09.06C4.46,25.26,4.54,25.23,4.46,25.18Zm.37.76h0C5.41,26.17,4.22,26.26,4.83,25.94Zm.46.48h0S5.23,26.17,5.29,26.42Zm-.24,0c-.19-.2.58.57.16.18C5.18,26.44,5.22,26.6,5.05,26.42Zm1,.72H6C5.85,27.14,6.36,27.38,6,27.14Zm-.19-.33c-.11-.13.25.59.22.2C5.93,27,6.06,27,5.83,26.81Zm-.6-.54h0C5.23,26.14,4.77,25.84,5.23,26.27Zm-1.18-1.6h0C4.08,24.58,3.69,24.25,4.05,24.67Zm0,.17H4C4,24.77,3.64,24.6,4,24.84Zm.07.18h0C4.1,25,4,24.74,4.09,25Zm2.2,2.35h0C6.46,27.28,5.88,27,6.29,27.37ZM4.05,25.11h0C4.09,25.05,3.88,24.91,4.05,25.11Zm.41.29h0C4.46,25.3,4,24.86,4.46,25.4Zm7.79,3c-.07,0-.05,0-.2-.19C12.08,28.22,12,28.46,12.25,28.44Zm-.53-.86c0-.11-.14-.19-.2-.27C11.53,27.51,11.66,27.47,11.72,27.58Zm-.24-.22c.11.09-.29-.59-.31-.24C11.26,27.23,11.31,27.12,11.48,27.36Zm-8-3.18c-.11.05-.11,0,.11.28C3.66,24.37,3.7,24.42,3.47,24.18Zm6.76,7C2.06,23.46-3,15.76,6.37,26.45c-.45.05,4.89,4.29,3.67,4.73C8.57,28.21,5.45,26.33,10.23,31.14ZM.93,20.42s-.05.12,0,.13S1,20.48.93,20.42Zm.12.62h0C.92,21.11,1.28,21.29,1.05,21Zm.8.59h0C1.87,21.54,1.57,21.63,1.85,21.63Zm.11.09H2C1.89,21.59,1.82,21.86,2,21.72Zm.48.46h0C2.32,22.07,2.49,22.47,2.44,22.18Zm.33.5h0C2.52,22.39,2.72,23,2.77,22.68Zm.28.16h0C2.86,22.78,3.1,23.09,3.05,22.84Zm.14.4h0C3.13,23.05,2.93,23.48,3.19,23.24Zm2,2.54a19.42,19.42,0,0,0-1.89-2.16A11.77,11.77,0,0,0,5.17,25.78Zm-.12.4v-.09S4.81,26.09,5.05,26.18Zm.51-.3h0C5.36,25.64,5.3,26,5.56,25.88Zm.07.08c0,.05,0,0,0,.09S5.7,26.15,5.63,26Zm.42.27c-.07,0,0,0-.08.09C6,26.24,6.06,26.42,6.05,26.23Zm.26.55s-.16-.27-.09-.05C6.25,26.79,6.23,26.71,6.31,26.78Zm.28.3h0C6.56,27.13,6.86,27.24,6.59,27.08Zm.22.35h0C6.86,27.27,6.38,27.23,6.81,27.43Zm.13,0c.09.13-.25,0-.06.14C6.94,27.55,6.87,27.59,6.94,27.43Zm2.83-1.81h0C9.89,25.59,9.72,25.15,9.77,25.62Zm.35.71c0-.21-.46-.23.06.18C10.17,26.49,10.3,26.24,10.12,26.33Zm2.12,1.79c-.44-.53-.24.09.17.15C12.37,28.2,12.44,28.25,12.24,28.12Zm-2-2.06c0,.16.57.47,0-.11C10.28,26,10.26,26,10.23,26.06Zm7.82,5.58c-.05.36.21-.18,1,.54C19,32.1,18.76,32.41,18.05,31.64Zm-4.4-1.46c0-1.27,1.32,1.64,1.66.9C14.36,30.81,14.8,28.78,13.65,30.18ZM7.57,27.79c.16-.11.17.35.48.33C8,28.21,7.75,27.71,7.57,27.79Zm5.23.84c-.67-.69,1.68,1.86.56.41C13.08,28.9,13.31,29.05,12.8,28.63Zm-1-1.45s.08.23.13.15C11.8,27.33,11.9,27.34,11.77,27.18Zm-1.72-2.09s0,.07.07.13S10.37,25,10.05,25.09ZM8.72,27h0C8.64,27.05,9,27.37,8.72,27ZM3.16,21.16c1.3,0,19.35,23.69-3.11-3.95A30.1,30.1,0,0,1,3.16,21.16Zm-.83-.83c-.07,0,0-.2-.15-.17C2.22,20.23,2.33,20.35,2.33,20.33ZM12.84,31.58h0C12.83,31.77,13.49,32.08,12.84,31.58Zm-.08-.13c0,.06,0,.12.07.11S12.79,31.51,12.76,31.45Zm-.66-.61c-.12,0,.74.64.44.39C12.42,31.08,12.54,31.25,12.1,30.84Zm-1.37-1.36c0-.08,1,1.16,1.16,1C11.52,30.41,11.48,30.11,10.73,29.48Zm-1.27-.83c0,.06.37.64.77.66C9.86,29.22,10.21,29.26,9.46,28.65Zm.19-.27h0C9.6,28.37,10,28.66,9.65,28.38ZM9.3,28c0-.09.35.44.26.16C9.47,28.29,9.55,28.2,9.3,28Zm-.7-.76h0C8.58,27.21,8.35,27.06,8.6,27.27Zm-5.44-6c-.06,0-.06-.11-.13-.13S3.09,21.37,3.16,21.29Zm5.43,6c0-.06-.07-.07,0,0S8.58,27,8.59,27.33Zm-.28-.76c-.07,0-.07,0,0,0S7.81,26.15,8.31,26.57Zm-7-4.9a.25.25,0,0,0-.17-.2C1.14,21.63,1.24,21.57,1.3,21.67ZM.21,14.18c.08,0-.26-.23,0-.11C.26,14.08,0,14.18.21,14.18Zm-.1-.49s0-.38-.06-.11C.05,13.6,0,13.63.11,13.69ZM6.69,26.07h0C6.64,26.11,6.79,26.28,6.69,26.07Zm2.19,1.17c-.12,0,.91,1,.18.06C9,27.3,9,27.26,8.88,27.24ZM3.1,24.18h0C2.78,24,3.48,24.62,3.1,24.18Zm11.09,8s0,0-.08,0S14.26,32.21,14.19,32.18ZM9.36,27.65h0C9.25,27.62,9.67,28.19,9.36,27.65Zm.78.88c.31.37-.46-.79-.48-.39C9.73,28.1,10.05,28.68,10.14,28.53Zm-9-7.37c0-.14-.11-.06,0,0S1.1,20.91,1.13,21.16ZM3,23.64a.2.2,0,0,0,0,.11S3.05,23.62,3,23.64Zm-.54-.46s.25.27,0-.05C2.47,23.12,2.37,23.17,2.42,23.18Zm-.42-1H2C2.06,22.21,2.29,22.25,2,22.18Zm-.86-.72h0C1.19,21.35.54,20.83,1.14,21.46Zm2.15,2.15h0C3.2,23.57,2.88,23.17,3.29,23.61Zm-.57-.29s-.24-.22-.05.05C2.64,23.28,2.69,23.32,2.72,23.32Zm-.46-.46h0C2.3,22.78,2,22.54,2.26,22.86Zm-1.36-2h0C.91,20.76.75,20.62.9,20.83Zm1,1.62H2C2,22.39,1.74,22.33,2,22.45Zm-.18-.05h0C1.77,22.23,1.33,22,1.77,22.4ZM1,21c.09,0-.1-.28-.06-.07C1,20.84.92,20.92,1,21Zm.88,1.36h0C1.89,22.28,1.63,22.24,1.86,22.34ZM1.58,22h0C1.57,21.91,1.25,21.67,1.58,22ZM4,18.41c-.15,0,.29.21.07-.05C4.05,18.34,4,18.5,4,18.41Zm0-.23H4C4.14,18.3,3.94,17.79,4,18.18Zm.27.67c-.26-.07.1.6.16.22C4.23,19,4.4,19.05,4.24,18.85Zm.18.17h0S4.4,18.75,4.42,19ZM11.2,31.49C10.49,30.59,1.11,21.13,0,17.69,2.45,22,13.2,31.53,11.2,31.49ZM.22,18.18h0S.36,18.5.22,18.18Zm.47.7c0,.08,0,.1.06.16S.81,18.86.69,18.88Zm.55.71s0,0,0,.1S1.24,19.69,1.24,19.59Zm.3.59a2.38,2.38,0,0,0-.06-1C1.45,20,1.52,19.16,1.54,20.18Zm2.48,3H4S4.33,23.32,4,23.18Zm-.42-.64h0C3.52,22.51,3.94,22.88,3.6,22.54Zm-.33-.42c0,.09.08.09.13.13A.13.13,0,0,0,3.27,22.12Zm-.22-.24c.09,0,0,0,.16.09S3.05,21.64,3.05,21.88Zm-.17-.26h0C2.82,21.65,3.13,21.81,2.88,21.62Zm0-.44s.14.25.13.06C3,21.27,3,21.24,2.92,21.18Zm1.69,3c-.06-1.58-.86,0-2-3C2.36,21.84,3.27,22.72,4.61,24.18Zm7.15,7.38.05.08C11.84,31.7,11.83,31.43,11.76,31.56Zm-1.71-2.35s.17.23.09,0C10.12,29.21,10.14,29.25,10.05,29.21Zm-1-.3h0C9.06,28.86,8.93,28.69,9.05,28.91Zm-.62-1.1h0C8.43,27.86,8.55,28,8.43,27.81Zm-3.15-3h0C5.33,24.86,5.41,24.65,5.28,24.81Zm.44.48c.16.18-1.86-2.25-.62-.44C5.26,24.8,5.28,25.3,5.72,25.29Zm.33.22a5.49,5.49,0,0,0-1,0C6.24,25.53,5.48,25.4,6.05,25.51ZM7.27,27c-.15,0-.15-.06,0,0C7.22,27.1,7.09,26.66,7.27,27Zm.78.55h0C7.87,27.43,8.14,27.67,8.05,27.53Zm3.53,3.65a63,63,0,0,1-5.44-5.56A30.1,30.1,0,0,0,11.58,31.18Zm-.53.16h0C10.83,31.36,12.69,31.34,11.05,31.34ZM.81,14.88h0S.76,14.66.81,14.88ZM3.5,17.73h0C3.41,17.87,3.67,18.11,3.5,17.73Zm.27.45h0C3.43,18.2,4.32,18.91,3.77,18.18Zm1,1.74c0-.06.06.54.14.06C4.85,20,4.82,19.85,4.75,19.92Zm-.28-.07h0C4.48,19.92,4.75,19.48,4.47,19.85Zm.85.22h0C5,20,5.37,20.46,5.32,20.07Zm-.67-.14c0-.09,0-.14,0-.22S4.53,19.93,4.65,19.93Zm-.12-.64c0,.17.18,0-.09-.11C4.47,19.14,4.4,19.52,4.53,19.29Zm.06-.11c.1-.27-.17.35.07.08C4.77,19.36,4.51,19.27,4.59,19.18ZM1,14.31c0-.12-.12-.23-.2-.37C.79,14.08.92,14.22,1,14.31Zm-.77-.13c.06.22.26.14-.18-.18C.16,14.06.17,14,.25,14.18Zm.15,0h0C.54,14.26.4,13.94.4,14.18Zm1.23,1c-.06,0,0,.08,0,0S1.49,15.14,1.63,15.18Zm.42-.7c-.55.15-1.27-.1-.79.42C4,17.62-.61,14.62,2.05,14.48ZM.4,14h0S.72,14.18.4,14Zm4.88,6.67h0C5.26,20.59,5.16,20.19,5.28,20.65ZM.93,15c0-.05,0,0,.06-.07S.75,14.82.93,15ZM.58,13.85h0C.55,13.91,1,13.7.58,13.85Zm-.53-.2c-.12-.17.31.23.09,0C.27,13.79-.11,13.15.05,13.65Zm1.8,1.53h0C2,15.11,1.5,14.94,1.85,15.18Zm-.8,0c.17.51.75.69,0,0Zm0-1c0,.07-.07.18,0,.15S1,14.33,1,14.18Zm1.71,3c0-.12-.5-.27-.66-1C1.83,16.39,1.76,16.43,2.72,17.18Zm.12-.86c-.09-.12,1.06,1.51.85.86C3.49,17.26,3.55,16.7,2.84,16.32Zm9-2.38c.06.06.62.73,0,0C11.85,13.91,11.79,13.89,11.81,13.94ZM6,21.18s.13,0,0,0C6.08,21.14,6,20.91,6,21.18Zm2.41,3.06c0-.1.22.18.11-.06C8.5,24.19,8.48,24.16,8.42,24.24Zm-.77-1.06c-.08,0,0,.19.07.06C7.67,23.26,7.72,23.25,7.65,23.18Zm.68,1h0C8.36,24.11,8.1,23.88,8.33,24.18Zm-.66-1h0C7.9,23.23,7.44,22.92,7.67,23.18Zm.31,0H8C7.9,23.23,8.21,23.34,8,23.18Zm.14,0c-.14-.08,0,.17.09.15S8.24,23.21,8.12,23.18Zm-.07,1h0C8.18,24.1,7.71,24,8.05,24.18Zm.63,0c.11-.3.08,1.7.15.12C8.72,24.29,8.87,24.14,8.68,24.18Zm.73,1c-.07-.11-.29.25,0,.15C9.43,25.27,9.25,25.32,9.41,25.18Zm-1-1h0C8.47,24.28,8.52,24,8.43,24.18Zm.86.53c0,.4-.32-.05-.32-.28C9.06,24.4,9.08,24.55,9.29,24.71Zm-.14,0h0C9.07,24.77,9.15,25,9.15,24.71Zm.43.46c-.11-.3-.18.2.14.09C9.69,25.35,9.48,25.28,9.58,25.17Zm-.76-.63h0C8.83,24.47,8.65,24.34,8.82,24.54ZM5.4,20.18h0C5.34,20.18,5.56,20.46,5.4,20.18Zm1.65,2.56s0,0-.06,0S7.09,22.91,7.05,22.74Zm3.77,3.44c-.22.27-.31.71.13,0C11,27,11.36,27.13,10.82,26.18ZM6.05,21.53s.07-.2-.08-.07C6,21.44,6,21.47,6.05,21.53ZM6,21.33H6C6.08,21.29,5.77,21,6,21.33ZM5.68,21c.06,0,0-.12,0-.13S5.63,21,5.68,21Zm.75,1.16c-.14-.07,0,.26,0,.06C6.35,22.24,6.34,22.24,6.43,22.18Zm-.8-1.61c0-.05,0-.14,0-.18A.15.15,0,0,0,5.63,20.57Zm.81.61h0C6.43,21.23,6.64,21.44,6.44,21.18Zm.46.91h0C6.83,22.16,7.1,22.25,6.9,22.09Zm.55.81h0C7.3,22.75,7.44,23.23,7.45,22.9Zm-.33-.31h0C7.05,22.5,7,22.81,7.12,22.59Zm-.26-.31h0C6.76,22.4,7.11,22.38,6.86,22.28Zm-.14-.42c0,.12-.13-.29-.13-.15C6.59,21.63,6.61,21.93,6.72,21.86Zm-.11.32h0C6.84,22.19,6.34,21.79,6.61,22.18Zm.44-11h0C7,11.26,7.28,11.46,7.05,11.18Zm-.34,0h0C6.59,11.09,6.74,11.41,6.71,11.18Zm1.34,1h0S8.12,12.44,8.05,12.21Zm-1-.62h0C7,11.43,6.78,11.71,7.05,11.59ZM6.3,10.41h0S6.11,10.22,6.3,10.41Zm.3.49s-.25-.44,0,0C6.63,11,6.56,10.86,6.6,10.9Zm-.26-.4h0C6.34,10.58,6.47,10.77,6.34,10.5Zm-.29-.21s.06.23,0-.11A.46.46,0,0,1,6.05,10.29Zm2.46,2.89h0C8.43,13.11,8.38,13.31,8.51,13.18Zm-.46-.77Zm.15.72c.05.09.1.19,0-.11C8.21,13,8.19,13,8.2,13.13ZM8,12.78c-.09,0,.23.37.09,0C8,12.85,8,12.77,8,12.78Zm-.09,0h0C8,12.78,7.8,12.48,7.89,12.74ZM5.7,9.59h0C5.58,9.68,6.06,9.93,5.7,9.59ZM17.05,25.5c-.25-.54-.49-.22.35.2C17.3,25.82,17.27,25.32,17.05,25.5Zm-10-10.62c-.11,0-.06-.09,0,0S7.26,14.74,7.05,14.88ZM4.45,8.4C6.75,10,.69,6.46,21.68,28.85,19.93,28.23,9.91,16.48,4.45,8.4Zm17.3,19.94s0,.17.09.09S21.8,28.35,21.75,28.34Zm-3.7-3.29c0,.08-.13-.29-.08-.05C18,25.05,18,25,18.05,25.05Zm.7.66h0C18.61,25.46,17.64,24.75,18.75,25.71Zm.18.17h0C19,25.82,18.64,25.61,18.93,25.88Zm.37.37Zm1.25,1.25h0C20.6,27.52,20.32,27.27,20.55,27.5Zm.85.77h0C21.41,28.36,22,28.75,21.4,28.27Zm-.2-.35h0C21.23,28,21.54,28.18,21.2,27.92Zm-.2-.31s-.09-.05-.11-.09S21,27.72,21,27.61ZM17.05,24c1.13,1.31,6.72,6.58.27.22C17.25,24.16,17.31,24.3,17.05,24Zm-.78-1.13c.1.26,0,0,.47.59C16.89,23.38,16.85,23.54,16.27,22.91Zm-.17-.13s0,0,0,.07S16.29,22.88,16.1,22.78Zm-.05-.22v.07S16.35,22.6,16.05,22.56Zm0-.24h0S16.36,22.58,16.05,22.32Zm-1.33-1.1h0C14.65,21.2,15,21.47,14.72,21.22Zm-2.34-2.59s.09-.1,0-.14S12.3,18.58,12.38,18.63Zm-5.33-6h0C7.06,12.53,6.86,12.39,7.05,12.59Zm-.21-.7h0C6.93,12,6.83,11.65,6.84,11.89Zm11,14.27c.66.53,1.37,1.25,0-.12C17.84,25.92,17.43,25.75,17.85,26.16ZM7.56,15.42c.05-.1,0,0-.08-.24C7.37,15.28,7.43,15.19,7.56,15.42Zm8.79,8.76h0C16.4,24.51,17.49,25.29,16.35,24.18Zm.55,1h0C17,25.27,17.05,24.92,16.9,25.18ZM4.76,8.18c-.06,0-.09,0,0,0C5.05,8.64,4.35,7.39,4.76,8.18ZM5.31,9h0C5.23,9,5.33,9.19,5.31,9Zm.2.21h0C5.45,9.25,5.71,9.19,5.51,9.18ZM6,9.8H6C5.87,9.71,6.19,10.12,6,9.8Zm-1-.58s0,0,0,0S4.92,9.1,5.05,9.22Zm-.11-1c-.11,0,.31.55.13.13C5,8.3,5.12,8.26,4.94,8.18Zm3.11,5.08s.2.34.08,0C8.11,13.26,8.13,13.29,8.05,13.26Zm-4-5.54s-.09,0,0,.09ZM10.4,12h0C10.31,12,10.55,12.29,10.4,12Zm-.22-.16h0C10.26,11.93,10.44,12.05,10.18,11.86ZM11.05,13c.12.55.75.62-.13-.13C10.92,13,10.93,12.9,11.05,13ZM8.46,9.18h0C8.38,9.23,8.71,9.5,8.46,9.18Zm.13,4.45s0,0,0-.13C8.47,13.52,8.5,13.51,8.59,13.63Zm1.16-2.49c0-.14-.17,0-.09-.17C9.53,11,9.64,11.19,9.75,11.14Zm2.3,3.13c-.12.14.8,1,.44.49C12.28,14.66,12.48,14.77,12.05,14.27ZM8.92,10.05c-.49-1.15-.15-.21.62.87C9.5,10.56,9.64,10.65,8.92,10.05Zm2.13,2.19h0C11,12.15,10.83,12.05,11.05,12.24Zm0,.16Zm2,2.74c.17.19.12-.09,0-.07S13,15.17,13,15.14Zm-2-2.84c-.12.06.22.21,0,0C11.05,12.32,11.05,12.33,11.05,12.3Zm1.22,1.59c0-.18.07,0-.22-.33C11.93,13.21,11.39,12.91,12.27,13.89Zm-2.22-2.22h0C10.23,12.05,11.08,12.73,10.05,11.67Zm0,4h0C11.56,17.48,8.75,14,10.05,15.71Zm-1-1.14h0C9.06,14.5,9,14.31,9.05,14.57Zm.48.39Zm0,0c.23.14-.34-.58-.13-.13C9.52,14.74,9.38,14.81,9.53,14.92Zm-.35-.52c.12-.09-.49-.46-.13,0C9.1,14.43,9.08,14.32,9.18,14.4ZM8.88,14h0C8.81,14,9.13,14.27,8.88,14Zm3.33,4.78c-.54-1.93,5,6.26,1.89,2.08C13.63,20.45,9.59,16,12.21,18.76Zm-2.29-6c.09.13.2.18,0,0S10.15,13.28,9.92,12.79Zm-1.87.81c.12.49,1,1-.33-.44C7.75,13.34,7.7,13.16,8.05,13.6Zm-.45-.7c0-.07,0,.45.18.15C7.62,13,7.8,13,7.6,12.9Zm1.54,1.54s0,0,.09,0S9.12,14.28,9.14,14.44Zm1.91,3.08c.5.52-3.65-4.77-1.7-2C10,16.24,9.67,16,11.05,17.52Zm-2-3.34c-.06,0-.06.34.11.06C9.08,14.3,9.16,14.25,9.05,14.18ZM.69,20.6c0-.09-.1-.21-.13-.11C.69,20.48.59,20.57.69,20.6Zm8.78,9.47s0,0,0,.11S9.55,30.2,9.47,30.07ZM1.05,20.81v0C.93,20.47,1.08,21,1.05,20.81Zm-.25.37c0,.05-.05-.25-.09-.11S.69,21.1.8,21.18ZM14,32.18h0C13.94,32.25,14.12,32.5,14,32.18ZM12,30.9c-.28-.35-.44-.12,0,0C12.1,30.87,11.91,31,12,30.9Zm.29.83c-.18,0-.07-.35-.6-.47C11.84,31.31,12.59,32.31,12.32,31.73Zm.13.1c.18.14.12-.16,0,0Zm-1.18-1.65h0C11.17,30.23,11.34,30.41,11.27,30.18ZM1.48,16.87c0,.13,0,.22.13.25S1.54,16.94,1.48,16.87Zm.66.86c0,.13.11.25.22.31A.84.84,0,0,0,2.14,17.73ZM13.28,31.3h0C13.37,31.2,13,31,13.28,31.3ZM1.85,17.85c-.51-.67.48.67.07.11C1.9,18,2,17.84,1.85,17.85ZM13.38,31.18h0S13.65,31.45,13.38,31.18Zm.37,0c-.1-.1-.31-.15,0,.06C13.67,31.23,13.74,31.24,13.75,31.18Zm.11,0c-.19.58,0,0-.07,1C14,31.9,13.82,32.18,13.86,31.18Zm-4.94-2c.05,0,0-.16,0-.13A.07.07,0,0,0,8.92,29.15Zm-.18,0h0C8.83,29,8.35,28.84,8.74,29.18Zm-.37-.69c0,.1.09.05,0,0S8.52,28.8,8.37,28.49Zm.9,1h0C9.27,29.47,9.2,29.27,9.27,29.53Zm-.37-.27c0,.06.15,0,0,0ZM7.05,27.37c0,.07-.11-.27-.06,0C7,27.39,7,27.34,7.05,27.37ZM2.33,21.62c-.22-.85-3.08-3.79-1.62-1.94A16.15,16.15,0,0,1,2.33,21.62ZM.05,18.68v.05S.24,18.93.05,18.68Zm.46,1.5H.56C.6,20.26.41,19.87.51,20.18Zm6.62-4.54S7,15.41,7,15.51,7.08,15.69,7.13,15.64Zm4.09,14.78c0,.1,0,.09,0,0S11,30.61,11.22,30.42ZM6.43,27.18c.07-.67-.13,0,.06-1A6.65,6.65,0,0,0,6.43,27.18Zm.55,0H7C7,27.4,7.33,27.14,7,27.18Zm3.65,3c.18,0-.17-.35-.15-.16S10.48,30,10.63,30.18ZM3.5,13h0S3.17,12.69,3.5,13Zm-.75-.77c-.16-.13.89,1.34.21.2C2.86,12.36,3,12.37,2.75,12.24ZM.14,14.11C1.48,18.47,12.06,24.49,15,33.18h0C7.66,25-4.67,11.12,10.05,28.54c10.26,9-9.51-7.36-8.94-10.34C2.07,20,12.21,30.08,7.93,25-9.81,1.85,15.74,36.45.14,14.11Zm.35,1.62c-.13-.12.08-.12-.44-.55C.15,15.43.05,15.23.49,15.73Zm.39.45h0C.88,16.09.5,15.84.88,16.18Zm3,4h0C3.91,20.13,3.78,19.94,3.9,20.18Zm.24.28s-.08.07-.09,0S4.21,20.64,4.14,20.46Zm.09-.28c.09,0-.34-.46-.15-.05C4.15,20.1,4.07,20.15,4.23,20.18Zm.79,1H5C4.59,20.66,4.93,21.31,5,21.18Zm.35,1h0C5.44,22.18,5.09,22,5.37,22.18Zm.22,1h0C5.59,22.48,5.56,21.46,5.59,23.18Zm.09-1h0C5.65,22.22,6,22.39,5.68,22.15Zm.46,0h0C5.93,22.12,6.13,22.4,6.14,22.18ZM1.05,17.29h0S1.1,17.53,1.05,17.29Zm6.6,8.47c0,.08.08.12.11.07S7.72,25.75,7.65,25.76Zm.32.42s.24-.08,0-.09C7.92,26.09,8,26.09,8,26.18Zm-.74-1h0C7.22,25.39,7.83,25.78,7.23,25.18Zm-.18,0h0C7.25,25.26,6.85,24.85,7.05,25.18Zm-.28,0s.18.28.11,0C6.88,25.21,6.88,25.2,6.77,25.18Zm-.37-.85h0S6.52,24.62,6.4,24.33ZM1.13,17.66c0-.06-.08-.06-.09-.11S1.07,17.73,1.13,17.66Zm.35.39c-.07.08,0,0-.11-.13S1.48,18.37,1.48,18.05ZM14.94,31.82s.16.24.11.07C15,31.93,15.1,31.71,14.94,31.82Zm-.89-.46h0C14,31.41,14.31,31.56,14.05,31.36Zm0,0h0C14.11,31.47,14.21,31,14.05,31.36Zm-1-1.1c.07-.09.31.16,0-.06C13.08,30.22,13.06,30.18,13.05,30.26Zm-1-.55c0,.05.27,0,.07-.13C12.14,29.68,12.12,29.63,12.05,29.71Zm0-.55s0,.34.11.07C12.22,29.14,12.06,29.31,12.05,29.16Zm0-.13h0C11.93,29.16,12.31,29.17,12.05,29Zm0-.17h0C12,28.87,12.42,29.1,12.05,28.86Zm0-.86h0C12,28.09,12.34,28.15,12.05,28Zm-.63.71c.11,0,.07-.21-.05-.18S11.44,28.63,11.42,28.71Zm-.37-.33h0C11,28.5,11.3,28.48,11.05,28.38ZM11,28.16c0,.09,0,0,.13.15S11.25,28.41,11,28.16Zm-.93-.45s0,.3.14.09C10,27.81,10.19,27.8,10.05,27.71Zm0-.13h0C10,27.65,10.33,27.73,10.05,27.58Zm0-.15h0C9.87,27.18,9.93,27.72,10.05,27.43Zm0-.83h0C10.06,26.73,10.18,26.57,10.05,26.6Zm0,.74Zm0-.31h0C10,27.09,10.33,27.36,10.05,27Zm0-.61h0C10.11,26.51,10.06,26.11,10.05,26.42Zm-.28.28c-.08-.09.2.47.28.25C9.94,27,10.06,26.94,9.77,26.7Zm-.35-.11c0,.05.22.13,0,0C9.37,26.58,9.45,26.57,9.42,26.59Zm-.37.29h0C9.05,26.93,9.31,27.09,9.05,26.88Zm.26-.61h0C9.39,26.36,9.42,26,9.31,26.27Zm-.07.15h0C9.33,26.4,9,26.13,9.24,26.42ZM9,26.18H9C9,26.16,8.78,25.9,9,26.18Zm0-.24c.11,0,0,0,.16.08S9,25.59,9.05,25.94Zm-.51-.76c0,.08.36.35.05,0C8.54,25.16,8.59,25.2,8.54,25.18Zm-.06,0s.21.13,0,0C8.43,25.16,8.51,25.16,8.48,25.18ZM8.37,25c0,.21,0,0,.11.22C8.56,25.15,8.58,25.2,8.37,25Zm-.31.22h0C8,25.28,8.37,25.43,8.06,25.18Zm-.15,0h0C8.11,25.36,7.73,24.89,7.91,25.18Zm-.29-1h0C7.68,24.13,7.47,23.9,7.62,24.18Zm-.35,0c0,.06,0,.11,0,0S7,24,7.27,24.16ZM7,23.61c0,.25.42.28,0-.08C7.06,23.52,7,23.63,7,23.61Zm0,.42h0S7,23.7,7.08,24Zm-.18-.85c0,.11.12.09.11,0Zm0,0h0C7,23.23,6.86,23,6.86,23.18ZM6.22,23h0C6.22,23,6.1,22.8,6.22,23Zm.5.2c0-.07,0-.08-.08-.11S6.69,23.22,6.72,23.22Zm-.08,0h0C6.8,23.12,6.51,23,6.64,23.18Zm-.11,0h0C6.82,23.48,6.46,22.63,6.53,23.18Zm.06,0h0C6.62,23.12,6.43,23,6.59,23.18Zm-.15-.51s0,0,.07,0S6.58,22.3,6.44,22.67Zm-.39.64h0S5.78,23.1,6.05,23.31Zm-2-3.79s.16.32.11.07C4.14,19.62,4.14,19.53,4.05,19.52Zm0-.34c.28.6.27-.28,0,1C4,19.17,4,20.26,4,19.18ZM3.86,19c0,.06.26.32,0,0C3.84,19,3.89,19,3.86,19Zm.19.38c.09,0,0,0,.16,0C4.21,19.42,4.08,19.27,4.05,19.39Zm-4-5.21h0C-.1,14.09.13,14.37.05,14.18Zm3-2h0C3.06,12.24,3.43,12.68,3.05,12.17Zm-1,5.88h0S2.23,18.37,2.05,18.05Zm3.21-.39h0C5.3,17.73,5.25,17.39,5.26,17.66Zm-.73-1c0-.11,0,0-.13-.11S4.34,16.5,4.53,16.68ZM6.64,15c-.06-.06-.13-.22-.2-.2C6.53,14.83,6.56,15,6.64,15Zm-1.59-.16h0C5.27,14.79,3.26,14.65,5.05,14.83ZM4.05,13c-.46.06.07-.21,0-.16C3.56,13,4,12.86,4.05,13ZM15.88,29.45c0-.05-.26-.43-.5-.48ZM4,13.18c.05.07.25.2,0-.07C4.06,13.13,4,13.12,4,13.18Zm-.13.14h0C3.62,13.21,4.17,13.71,3.89,13.32Zm-2-2.19c-.07,0,.3.37.07,0C2,11.16,2,11.13,1.92,11.13ZM.16,13.21s0,.13.13.09S.21,13,.16,13.21ZM.23,14c0,.07.05.13.09.09S.26,14,.23,14Zm2.41,4.22h0C2.73,18.12,2.32,17.76,2.64,18.18Zm1.2,1.15c0,.05,0,.09,0,0S3.52,19,3.84,19.33ZM1.29,22.18h0C1.18,22.21,1.8,22.66,1.29,22.18Zm.19,0h0C1.36,22.09,1.48,22.46,1.48,22.18Zm16.22,9c-.17-.42-.79-.68-.28-.31C17.32,31,18.93,32.16,17.7,31.19ZM15.37,26.9c-.17-.29,0,0-.72-.68C14.23,25.93,17.21,28.68,15.37,26.9Zm1.05,3.28c.2-.1-.92-.83-.17-.22C16.12,30,16.71,30.3,16.42,30.18Zm.2,0c-.37-.14.67.66.26.26C16.82,30.29,16.88,30.47,16.62,30.18Zm-7.15,1h0Zm8.34-1.7a.46.46,0,0,1,.17.17C18,29.58,17.87,29.43,17.81,29.48Z"/>
    </g>
  </g>
</svg>
